<mxfile host="app.diagrams.net" modified="2022-11-16T15:56:39.646Z" agent="5.0 (Windows NT 10.0; Win64; x64) AppleWebKit/537.36 (KHTML, like Gecko) Chrome/107.0.0.0 Safari/537.36" etag="KghN8ewW8Ug0_6G9BK9O" version="20.5.3" type="github" pages="5">
  <diagram name="client server architecture" id="822b0af5-4adb-64df-f703-e8dfc1f81529">
    <mxGraphModel dx="1038" dy="-367" grid="1" gridSize="10" guides="1" tooltips="1" connect="1" arrows="1" fold="1" page="1" pageScale="1" pageWidth="1100" pageHeight="850" background="none" math="0" shadow="0">
      <root>
        <mxCell id="0" />
        <mxCell id="1" parent="0" />
        <mxCell id="AwcQBpQKS7GPVbEw_jSh-1" value="" style="image;html=1;image=img/lib/clip_art/computers/Server_Tower_128x128.png" parent="1" vertex="1">
          <mxGeometry x="1059" y="1022" width="80" height="80" as="geometry" />
        </mxCell>
        <mxCell id="AwcQBpQKS7GPVbEw_jSh-5" value="" style="image;html=1;image=img/lib/clip_art/computers/Laptop_128x128.png" parent="1" vertex="1">
          <mxGeometry x="574.5" y="1416" width="80" height="80" as="geometry" />
        </mxCell>
        <mxCell id="AwcQBpQKS7GPVbEw_jSh-9" value="&lt;font style=&quot;font-size: 24px;&quot;&gt;File&lt;br&gt;server&lt;/font&gt;" style="text;html=1;strokeColor=none;fillColor=none;align=center;verticalAlign=middle;whiteSpace=wrap;rounded=0;" parent="1" vertex="1">
          <mxGeometry x="1059" y="860" width="90" height="65" as="geometry" />
        </mxCell>
        <mxCell id="AwcQBpQKS7GPVbEw_jSh-13" value="" style="endArrow=classic;html=1;rounded=0;fontSize=24;" parent="1" edge="1">
          <mxGeometry width="50" height="50" relative="1" as="geometry">
            <mxPoint x="609" y="1412" as="sourcePoint" />
            <mxPoint x="1049" y="1092" as="targetPoint" />
          </mxGeometry>
        </mxCell>
        <mxCell id="AwcQBpQKS7GPVbEw_jSh-14" value="Source IP, port: B, 9157&lt;br&gt;Dest IP, port: A, 1397" style="text;html=1;strokeColor=none;fillColor=none;align=center;verticalAlign=middle;whiteSpace=wrap;rounded=0;fontSize=24;rotation=-35;" parent="1" vertex="1">
          <mxGeometry x="654.5" y="1182" width="294.5" height="60" as="geometry" />
        </mxCell>
        <mxCell id="AwcQBpQKS7GPVbEw_jSh-15" value="Host: IP&lt;br&gt;address B" style="text;html=1;strokeColor=none;fillColor=none;align=center;verticalAlign=middle;whiteSpace=wrap;rounded=0;fontSize=24;" parent="1" vertex="1">
          <mxGeometry x="549" y="1496" width="140" height="60" as="geometry" />
        </mxCell>
        <mxCell id="AwcQBpQKS7GPVbEw_jSh-18" value="&lt;span style=&quot;color: rgb(0, 0, 0); font-family: Helvetica; font-size: 24px; font-style: normal; font-variant-ligatures: normal; font-variant-caps: normal; font-weight: 400; letter-spacing: normal; orphans: 2; text-align: center; text-indent: 0px; text-transform: none; widows: 2; word-spacing: 0px; -webkit-text-stroke-width: 0px; background-color: rgb(248, 249, 250); text-decoration-thickness: initial; text-decoration-style: initial; text-decoration-color: initial; float: none; display: inline !important;&quot;&gt;Host: IP&lt;/span&gt;&lt;br style=&quot;color: rgb(0, 0, 0); font-family: Helvetica; font-size: 24px; font-style: normal; font-variant-ligatures: normal; font-variant-caps: normal; font-weight: 400; letter-spacing: normal; orphans: 2; text-align: center; text-indent: 0px; text-transform: none; widows: 2; word-spacing: 0px; -webkit-text-stroke-width: 0px; background-color: rgb(248, 249, 250); text-decoration-thickness: initial; text-decoration-style: initial; text-decoration-color: initial;&quot;&gt;&lt;span style=&quot;color: rgb(0, 0, 0); font-family: Helvetica; font-size: 24px; font-style: normal; font-variant-ligatures: normal; font-variant-caps: normal; font-weight: 400; letter-spacing: normal; orphans: 2; text-align: center; text-indent: 0px; text-transform: none; widows: 2; word-spacing: 0px; -webkit-text-stroke-width: 0px; background-color: rgb(248, 249, 250); text-decoration-thickness: initial; text-decoration-style: initial; text-decoration-color: initial; float: none; display: inline !important;&quot;&gt;address A&lt;/span&gt;" style="text;whiteSpace=wrap;html=1;fontSize=24;" parent="1" vertex="1">
          <mxGeometry x="1049" y="932" width="140" height="80" as="geometry" />
        </mxCell>
        <mxCell id="AwcQBpQKS7GPVbEw_jSh-20" value="Clients" style="text;html=1;strokeColor=none;fillColor=none;align=center;verticalAlign=middle;whiteSpace=wrap;rounded=0;fontSize=24;" parent="1" vertex="1">
          <mxGeometry x="1062" y="1640" width="80" height="50" as="geometry" />
        </mxCell>
        <mxCell id="AwcQBpQKS7GPVbEw_jSh-22" value="" style="endArrow=classic;html=1;rounded=0;fontSize=24;entryX=0.75;entryY=0;entryDx=0;entryDy=0;" parent="1" target="AwcQBpQKS7GPVbEw_jSh-5" edge="1">
          <mxGeometry width="50" height="50" relative="1" as="geometry">
            <mxPoint x="1049" y="1112" as="sourcePoint" />
            <mxPoint x="659" y="1422" as="targetPoint" />
          </mxGeometry>
        </mxCell>
        <mxCell id="AwcQBpQKS7GPVbEw_jSh-23" value="&lt;span style=&quot;color: rgb(0, 0, 0); font-family: Helvetica; font-size: 24px; font-style: normal; font-variant-ligatures: normal; font-variant-caps: normal; font-weight: 400; letter-spacing: normal; orphans: 2; text-align: center; text-indent: 0px; text-transform: none; widows: 2; word-spacing: 0px; -webkit-text-stroke-width: 0px; background-color: rgb(248, 249, 250); text-decoration-thickness: initial; text-decoration-style: initial; text-decoration-color: initial; float: none; display: inline !important;&quot;&gt;Source IP, port: A, 1397&lt;/span&gt;&lt;br style=&quot;color: rgb(0, 0, 0); font-family: Helvetica; font-size: 24px; font-style: normal; font-variant-ligatures: normal; font-variant-caps: normal; font-weight: 400; letter-spacing: normal; orphans: 2; text-align: center; text-indent: 0px; text-transform: none; widows: 2; word-spacing: 0px; -webkit-text-stroke-width: 0px; background-color: rgb(248, 249, 250); text-decoration-thickness: initial; text-decoration-style: initial; text-decoration-color: initial;&quot;&gt;&lt;span style=&quot;color: rgb(0, 0, 0); font-family: Helvetica; font-size: 24px; font-style: normal; font-variant-ligatures: normal; font-variant-caps: normal; font-weight: 400; letter-spacing: normal; orphans: 2; text-align: center; text-indent: 0px; text-transform: none; widows: 2; word-spacing: 0px; -webkit-text-stroke-width: 0px; background-color: rgb(248, 249, 250); text-decoration-thickness: initial; text-decoration-style: initial; text-decoration-color: initial; float: none; display: inline !important;&quot;&gt;&amp;nbsp; Dest IP, port: B, 9157&lt;/span&gt;" style="text;whiteSpace=wrap;html=1;fontSize=24;rotation=-35;" parent="1" vertex="1">
          <mxGeometry x="729" y="1252" width="290" height="80" as="geometry" />
        </mxCell>
        <mxCell id="AwcQBpQKS7GPVbEw_jSh-25" value="" style="shape=image;html=1;verticalAlign=top;verticalLabelPosition=bottom;labelBackgroundColor=#ffffff;imageAspect=0;aspect=fixed;image=https://cdn0.iconfinder.com/data/icons/devices-42/512/android_phone-128.png" parent="1" vertex="1">
          <mxGeometry x="1550" y="1363" width="109" height="109" as="geometry" />
        </mxCell>
        <mxCell id="AwcQBpQKS7GPVbEw_jSh-27" value="&lt;span style=&quot;color: rgb(0, 0, 0); font-family: Helvetica; font-size: 24px; font-style: normal; font-variant-ligatures: normal; font-variant-caps: normal; font-weight: 400; letter-spacing: normal; orphans: 2; text-align: center; text-indent: 0px; text-transform: none; widows: 2; word-spacing: 0px; -webkit-text-stroke-width: 0px; background-color: rgb(248, 249, 250); text-decoration-thickness: initial; text-decoration-style: initial; text-decoration-color: initial; float: none; display: inline !important;&quot;&gt;Host: IP&lt;/span&gt;&lt;br style=&quot;color: rgb(0, 0, 0); font-family: Helvetica; font-size: 24px; font-style: normal; font-variant-ligatures: normal; font-variant-caps: normal; font-weight: 400; letter-spacing: normal; orphans: 2; text-align: center; text-indent: 0px; text-transform: none; widows: 2; word-spacing: 0px; -webkit-text-stroke-width: 0px; background-color: rgb(248, 249, 250); text-decoration-thickness: initial; text-decoration-style: initial; text-decoration-color: initial;&quot;&gt;&lt;span style=&quot;color: rgb(0, 0, 0); font-family: Helvetica; font-size: 24px; font-style: normal; font-variant-ligatures: normal; font-variant-caps: normal; font-weight: 400; letter-spacing: normal; orphans: 2; text-align: center; text-indent: 0px; text-transform: none; widows: 2; word-spacing: 0px; -webkit-text-stroke-width: 0px; background-color: rgb(248, 249, 250); text-decoration-thickness: initial; text-decoration-style: initial; text-decoration-color: initial; float: none; display: inline !important;&quot;&gt;address D&lt;/span&gt;" style="text;whiteSpace=wrap;html=1;fontSize=24;" parent="1" vertex="1">
          <mxGeometry x="1549" y="1472" width="140" height="80" as="geometry" />
        </mxCell>
        <mxCell id="AwcQBpQKS7GPVbEw_jSh-31" value="" style="endArrow=classic;html=1;rounded=0;fontSize=24;" parent="1" edge="1">
          <mxGeometry width="50" height="50" relative="1" as="geometry">
            <mxPoint x="1091" y="1492" as="sourcePoint" />
            <mxPoint x="1091" y="1112" as="targetPoint" />
          </mxGeometry>
        </mxCell>
        <mxCell id="AwcQBpQKS7GPVbEw_jSh-32" value="" style="endArrow=classic;html=1;rounded=0;fontSize=24;" parent="1" edge="1">
          <mxGeometry width="50" height="50" relative="1" as="geometry">
            <mxPoint x="1110.17" y="1122" as="sourcePoint" />
            <mxPoint x="1110" y="1492" as="targetPoint" />
          </mxGeometry>
        </mxCell>
        <mxCell id="AwcQBpQKS7GPVbEw_jSh-33" value="&lt;span style=&quot;color: rgb(0, 0, 0); font-family: Helvetica; font-size: 24px; font-style: normal; font-variant-ligatures: normal; font-variant-caps: normal; font-weight: 400; letter-spacing: normal; orphans: 2; text-align: center; text-indent: 0px; text-transform: none; widows: 2; word-spacing: 0px; -webkit-text-stroke-width: 0px; background-color: rgb(248, 249, 250); text-decoration-thickness: initial; text-decoration-style: initial; text-decoration-color: initial; float: none; display: inline !important;&quot;&gt;Source IP, port: C, 5757&lt;/span&gt;&lt;br style=&quot;color: rgb(0, 0, 0); font-family: Helvetica; font-size: 24px; font-style: normal; font-variant-ligatures: normal; font-variant-caps: normal; font-weight: 400; letter-spacing: normal; orphans: 2; text-align: center; text-indent: 0px; text-transform: none; widows: 2; word-spacing: 0px; -webkit-text-stroke-width: 0px; background-color: rgb(248, 249, 250); text-decoration-thickness: initial; text-decoration-style: initial; text-decoration-color: initial;&quot;&gt;&lt;span style=&quot;color: rgb(0, 0, 0); font-family: Helvetica; font-size: 24px; font-style: normal; font-variant-ligatures: normal; font-variant-caps: normal; font-weight: 400; letter-spacing: normal; orphans: 2; text-align: center; text-indent: 0px; text-transform: none; widows: 2; word-spacing: 0px; -webkit-text-stroke-width: 0px; background-color: rgb(248, 249, 250); text-decoration-thickness: initial; text-decoration-style: initial; text-decoration-color: initial; float: none; display: inline !important;&quot;&gt;Dest IP, port: A, 1397&lt;/span&gt;" style="text;whiteSpace=wrap;html=1;fontSize=24;" parent="1" vertex="1">
          <mxGeometry x="829" y="1392" width="290" height="80" as="geometry" />
        </mxCell>
        <mxCell id="AwcQBpQKS7GPVbEw_jSh-34" value="" style="image;html=1;image=img/lib/clip_art/computers/Monitor_Tower_128x128.png" parent="1" vertex="1">
          <mxGeometry x="1061" y="1502" width="80" height="80" as="geometry" />
        </mxCell>
        <mxCell id="AwcQBpQKS7GPVbEw_jSh-35" value="&lt;span style=&quot;color: rgb(0, 0, 0); font-family: Helvetica; font-size: 24px; font-style: normal; font-variant-ligatures: normal; font-variant-caps: normal; font-weight: 400; letter-spacing: normal; orphans: 2; text-align: center; text-indent: 0px; text-transform: none; widows: 2; word-spacing: 0px; -webkit-text-stroke-width: 0px; background-color: rgb(248, 249, 250); text-decoration-thickness: initial; text-decoration-style: initial; text-decoration-color: initial; float: none; display: inline !important;&quot;&gt;Host: IP&lt;/span&gt;&lt;br style=&quot;color: rgb(0, 0, 0); font-family: Helvetica; font-size: 24px; font-style: normal; font-variant-ligatures: normal; font-variant-caps: normal; font-weight: 400; letter-spacing: normal; orphans: 2; text-align: center; text-indent: 0px; text-transform: none; widows: 2; word-spacing: 0px; -webkit-text-stroke-width: 0px; background-color: rgb(248, 249, 250); text-decoration-thickness: initial; text-decoration-style: initial; text-decoration-color: initial;&quot;&gt;&lt;span style=&quot;color: rgb(0, 0, 0); font-family: Helvetica; font-size: 24px; font-style: normal; font-variant-ligatures: normal; font-variant-caps: normal; font-weight: 400; letter-spacing: normal; orphans: 2; text-align: center; text-indent: 0px; text-transform: none; widows: 2; word-spacing: 0px; -webkit-text-stroke-width: 0px; background-color: rgb(248, 249, 250); text-decoration-thickness: initial; text-decoration-style: initial; text-decoration-color: initial; float: none; display: inline !important;&quot;&gt;address C&lt;/span&gt;" style="text;whiteSpace=wrap;html=1;fontSize=24;" parent="1" vertex="1">
          <mxGeometry x="1059" y="1570" width="140" height="80" as="geometry" />
        </mxCell>
        <mxCell id="AwcQBpQKS7GPVbEw_jSh-36" value="&lt;span style=&quot;color: rgb(0, 0, 0); font-family: Helvetica; font-size: 24px; font-style: normal; font-variant-ligatures: normal; font-variant-caps: normal; font-weight: 400; letter-spacing: normal; orphans: 2; text-align: center; text-indent: 0px; text-transform: none; widows: 2; word-spacing: 0px; -webkit-text-stroke-width: 0px; background-color: rgb(248, 249, 250); text-decoration-thickness: initial; text-decoration-style: initial; text-decoration-color: initial; float: none; display: inline !important;&quot;&gt;Source IP, port: A, 1397&lt;/span&gt;&lt;br style=&quot;color: rgb(0, 0, 0); font-family: Helvetica; font-size: 24px; font-style: normal; font-variant-ligatures: normal; font-variant-caps: normal; font-weight: 400; letter-spacing: normal; orphans: 2; text-align: center; text-indent: 0px; text-transform: none; widows: 2; word-spacing: 0px; -webkit-text-stroke-width: 0px; background-color: rgb(248, 249, 250); text-decoration-thickness: initial; text-decoration-style: initial; text-decoration-color: initial;&quot;&gt;&lt;span style=&quot;color: rgb(0, 0, 0); font-family: Helvetica; font-size: 24px; font-style: normal; font-variant-ligatures: normal; font-variant-caps: normal; font-weight: 400; letter-spacing: normal; orphans: 2; text-align: center; text-indent: 0px; text-transform: none; widows: 2; word-spacing: 0px; -webkit-text-stroke-width: 0px; background-color: rgb(248, 249, 250); text-decoration-thickness: initial; text-decoration-style: initial; text-decoration-color: initial; float: none; display: inline !important;&quot;&gt;Dest IP, port: C, 5757&lt;/span&gt;" style="text;whiteSpace=wrap;html=1;fontSize=24;" parent="1" vertex="1">
          <mxGeometry x="1127" y="1392" width="290" height="80" as="geometry" />
        </mxCell>
        <mxCell id="AwcQBpQKS7GPVbEw_jSh-37" value="" style="endArrow=classic;html=1;rounded=0;fontSize=24;" parent="1" edge="1">
          <mxGeometry width="50" height="50" relative="1" as="geometry">
            <mxPoint x="1569" y="1362" as="sourcePoint" />
            <mxPoint x="1137" y="1102" as="targetPoint" />
          </mxGeometry>
        </mxCell>
        <mxCell id="AwcQBpQKS7GPVbEw_jSh-38" value="" style="endArrow=classic;html=1;rounded=0;fontSize=24;" parent="1" edge="1">
          <mxGeometry width="50" height="50" relative="1" as="geometry">
            <mxPoint x="1142" y="1082" as="sourcePoint" />
            <mxPoint x="1589" y="1352" as="targetPoint" />
          </mxGeometry>
        </mxCell>
        <mxCell id="AwcQBpQKS7GPVbEw_jSh-39" value="&lt;span style=&quot;color: rgb(0, 0, 0); font-family: Helvetica; font-size: 24px; font-style: normal; font-variant-ligatures: normal; font-variant-caps: normal; font-weight: 400; letter-spacing: normal; orphans: 2; text-indent: 0px; text-transform: none; widows: 2; word-spacing: 0px; -webkit-text-stroke-width: 0px; text-decoration-thickness: initial; text-decoration-style: initial; text-decoration-color: initial; text-align: center; background-color: rgb(248, 249, 250); float: none; display: inline !important;&quot;&gt;Source IP, port: D, 6428&lt;/span&gt;&lt;br style=&quot;color: rgb(0, 0, 0); font-family: Helvetica; font-size: 24px; font-style: normal; font-variant-ligatures: normal; font-variant-caps: normal; font-weight: 400; letter-spacing: normal; orphans: 2; text-indent: 0px; text-transform: none; widows: 2; word-spacing: 0px; -webkit-text-stroke-width: 0px; text-decoration-thickness: initial; text-decoration-style: initial; text-decoration-color: initial; text-align: center; background-color: rgb(248, 249, 250);&quot;&gt;&lt;span style=&quot;color: rgb(0, 0, 0); font-family: Helvetica; font-size: 24px; font-style: normal; font-variant-ligatures: normal; font-variant-caps: normal; font-weight: 400; letter-spacing: normal; orphans: 2; text-indent: 0px; text-transform: none; widows: 2; word-spacing: 0px; -webkit-text-stroke-width: 0px; text-decoration-thickness: initial; text-decoration-style: initial; text-decoration-color: initial; text-align: center; background-color: rgb(248, 249, 250); float: none; display: inline !important;&quot;&gt;Dest IP, port: A, 1397&lt;/span&gt;" style="text;whiteSpace=wrap;html=1;fontSize=24;rotation=30;" parent="1" vertex="1">
          <mxGeometry x="1142" y="1212" width="290" height="79.33" as="geometry" />
        </mxCell>
        <mxCell id="AwcQBpQKS7GPVbEw_jSh-40" value="&lt;span style=&quot;color: rgb(0, 0, 0); font-family: Helvetica; font-size: 24px; font-style: normal; font-variant-ligatures: normal; font-variant-caps: normal; font-weight: 400; letter-spacing: normal; orphans: 2; text-indent: 0px; text-transform: none; widows: 2; word-spacing: 0px; -webkit-text-stroke-width: 0px; text-decoration-thickness: initial; text-decoration-style: initial; text-decoration-color: initial; text-align: center; background-color: rgb(248, 249, 250); float: none; display: inline !important;&quot;&gt;Source IP, port: A, 1397&lt;/span&gt;&lt;br style=&quot;color: rgb(0, 0, 0); font-family: Helvetica; font-size: 24px; font-style: normal; font-variant-ligatures: normal; font-variant-caps: normal; font-weight: 400; letter-spacing: normal; orphans: 2; text-indent: 0px; text-transform: none; widows: 2; word-spacing: 0px; -webkit-text-stroke-width: 0px; text-decoration-thickness: initial; text-decoration-style: initial; text-decoration-color: initial; text-align: center; background-color: rgb(248, 249, 250);&quot;&gt;&lt;span style=&quot;color: rgb(0, 0, 0); font-family: Helvetica; font-size: 24px; font-style: normal; font-variant-ligatures: normal; font-variant-caps: normal; font-weight: 400; letter-spacing: normal; orphans: 2; text-indent: 0px; text-transform: none; widows: 2; word-spacing: 0px; -webkit-text-stroke-width: 0px; text-decoration-thickness: initial; text-decoration-style: initial; text-decoration-color: initial; text-align: center; background-color: rgb(248, 249, 250); float: none; display: inline !important;&quot;&gt;Dest IP, port: D, 6428&lt;/span&gt;" style="text;whiteSpace=wrap;html=1;fontSize=24;rotation=30;" parent="1" vertex="1">
          <mxGeometry x="1219" y="1132" width="290" height="80" as="geometry" />
        </mxCell>
        <mxCell id="AwcQBpQKS7GPVbEw_jSh-46" value="TCP connection" style="text;html=1;strokeColor=none;fillColor=none;align=center;verticalAlign=middle;whiteSpace=wrap;rounded=0;fontSize=24;" parent="1" vertex="1">
          <mxGeometry x="620" y="1012" width="280" height="57" as="geometry" />
        </mxCell>
      </root>
    </mxGraphModel>
  </diagram>
  <diagram id="yejDoy05T_WTSxbcO2Ch" name="main">
    <mxGraphModel dx="3137" dy="690" grid="1" gridSize="10" guides="1" tooltips="1" connect="1" arrows="1" fold="1" page="1" pageScale="1" pageWidth="827" pageHeight="1169" math="0" shadow="0">
      <root>
        <mxCell id="0" />
        <mxCell id="1" parent="0" />
        <mxCell id="-6Qd9hBJ-JfoRWG8CqMM-11" value="connect to server" style="rounded=0;whiteSpace=wrap;html=1;fontSize=20;" parent="1" vertex="1">
          <mxGeometry x="-1133" y="360" width="120" height="60" as="geometry" />
        </mxCell>
        <mxCell id="-6Qd9hBJ-JfoRWG8CqMM-12" value="" style="endArrow=classic;html=1;rounded=0;fontSize=20;exitX=0.5;exitY=1;exitDx=0;exitDy=0;entryX=0.5;entryY=0;entryDx=0;entryDy=0;" parent="1" source="-6Qd9hBJ-JfoRWG8CqMM-11" target="-6Qd9hBJ-JfoRWG8CqMM-31" edge="1">
          <mxGeometry width="50" height="50" relative="1" as="geometry">
            <mxPoint x="-1088" y="540" as="sourcePoint" />
            <mxPoint x="-1078" y="380" as="targetPoint" />
          </mxGeometry>
        </mxCell>
        <mxCell id="-6Qd9hBJ-JfoRWG8CqMM-16" value="" style="endArrow=classic;html=1;rounded=0;fontSize=20;exitX=0.5;exitY=1;exitDx=0;exitDy=0;entryX=0.5;entryY=0;entryDx=0;entryDy=0;" parent="1" source="-6Qd9hBJ-JfoRWG8CqMM-17" target="YQ8rqOIDBzv-mz20P3oR-1" edge="1">
          <mxGeometry width="50" height="50" relative="1" as="geometry">
            <mxPoint x="-1078" y="620" as="sourcePoint" />
            <mxPoint x="-1073" y="660" as="targetPoint" />
          </mxGeometry>
        </mxCell>
        <mxCell id="-6Qd9hBJ-JfoRWG8CqMM-17" value="acquire authorization" style="shape=process;whiteSpace=wrap;html=1;backgroundOutline=1;fontSize=20;" parent="1" vertex="1">
          <mxGeometry x="-1397" y="480" width="150" height="70" as="geometry" />
        </mxCell>
        <mxCell id="-6Qd9hBJ-JfoRWG8CqMM-20" value="fetch uploading plan" style="shape=process;whiteSpace=wrap;html=1;backgroundOutline=1;fontSize=20;" parent="1" vertex="1">
          <mxGeometry x="-802" y="635" width="190" height="80" as="geometry" />
        </mxCell>
        <mxCell id="-6Qd9hBJ-JfoRWG8CqMM-31" value="clientSocket" style="shape=parallelogram;perimeter=parallelogramPerimeter;whiteSpace=wrap;html=1;fixedSize=1;fontSize=20;" parent="1" vertex="1">
          <mxGeometry x="-1142" y="480" width="140" height="70" as="geometry" />
        </mxCell>
        <mxCell id="-6Qd9hBJ-JfoRWG8CqMM-40" value="ip, port" style="shape=parallelogram;perimeter=parallelogramPerimeter;whiteSpace=wrap;html=1;fixedSize=1;fontSize=20;" parent="1" vertex="1">
          <mxGeometry x="-1227" y="250" width="120" height="60" as="geometry" />
        </mxCell>
        <mxCell id="-6Qd9hBJ-JfoRWG8CqMM-41" value="&lt;span style=&quot;font-size: 20px;&quot;&gt;start&lt;/span&gt;" style="strokeWidth=2;html=1;shape=mxgraph.flowchart.start_1;whiteSpace=wrap;fontSize=20;" parent="1" vertex="1">
          <mxGeometry x="-1004" y="20" width="110" height="50" as="geometry" />
        </mxCell>
        <mxCell id="-6Qd9hBJ-JfoRWG8CqMM-42" value="" style="endArrow=classic;html=1;rounded=0;fontSize=20;exitX=0.5;exitY=1;exitDx=0;exitDy=0;exitPerimeter=0;entryX=0.512;entryY=0.108;entryDx=0;entryDy=0;entryPerimeter=0;" parent="1" source="-6Qd9hBJ-JfoRWG8CqMM-41" target="-6Qd9hBJ-JfoRWG8CqMM-43" edge="1">
          <mxGeometry width="50" height="50" relative="1" as="geometry">
            <mxPoint x="-58" y="-67" as="sourcePoint" />
            <mxPoint x="-1158" y="160" as="targetPoint" />
          </mxGeometry>
        </mxCell>
        <mxCell id="-6Qd9hBJ-JfoRWG8CqMM-43" value="Key commands, with parameters, server IP, port, id, file" style="html=1;strokeWidth=2;shape=manualInput;whiteSpace=wrap;rounded=1;size=26;arcSize=11;fontSize=20;" parent="1" vertex="1">
          <mxGeometry x="-1041" y="78" width="180" height="130" as="geometry" />
        </mxCell>
        <mxCell id="-6Qd9hBJ-JfoRWG8CqMM-44" value="" style="endArrow=classic;html=1;rounded=0;fontSize=20;entryX=1;entryY=0.5;entryDx=0;entryDy=0;exitX=-0.012;exitY=0.681;exitDx=0;exitDy=0;exitPerimeter=0;" parent="1" source="-6Qd9hBJ-JfoRWG8CqMM-43" target="-6Qd9hBJ-JfoRWG8CqMM-45" edge="1">
          <mxGeometry width="50" height="50" relative="1" as="geometry">
            <mxPoint x="-1148" y="190" as="sourcePoint" />
            <mxPoint x="-728" y="-27" as="targetPoint" />
          </mxGeometry>
        </mxCell>
        <mxCell id="-6Qd9hBJ-JfoRWG8CqMM-45" value="_argparse()" style="rounded=0;whiteSpace=wrap;html=1;fontSize=20;" parent="1" vertex="1">
          <mxGeometry x="-1227" y="136" width="120" height="60" as="geometry" />
        </mxCell>
        <mxCell id="-6Qd9hBJ-JfoRWG8CqMM-46" value="" style="endArrow=classic;html=1;rounded=0;fontSize=20;entryX=0.5;entryY=0;entryDx=0;entryDy=0;edgeStyle=orthogonalEdgeStyle;" parent="1" source="-6Qd9hBJ-JfoRWG8CqMM-45" target="-6Qd9hBJ-JfoRWG8CqMM-40" edge="1">
          <mxGeometry width="50" height="50" relative="1" as="geometry">
            <mxPoint x="-1288" y="200" as="sourcePoint" />
            <mxPoint x="-1068" y="150" as="targetPoint" />
          </mxGeometry>
        </mxCell>
        <mxCell id="-6Qd9hBJ-JfoRWG8CqMM-47" value="" style="endArrow=classic;html=1;rounded=0;fontSize=20;exitX=0.5;exitY=1;exitDx=0;exitDy=0;entryX=0.5;entryY=0;entryDx=0;entryDy=0;edgeStyle=orthogonalEdgeStyle;" parent="1" source="-6Qd9hBJ-JfoRWG8CqMM-40" target="-6Qd9hBJ-JfoRWG8CqMM-11" edge="1">
          <mxGeometry width="50" height="50" relative="1" as="geometry">
            <mxPoint x="-1378" y="250" as="sourcePoint" />
            <mxPoint x="-1068" y="110" as="targetPoint" />
            <Array as="points">
              <mxPoint x="-1167" y="340" />
              <mxPoint x="-1073" y="340" />
            </Array>
          </mxGeometry>
        </mxCell>
        <mxCell id="-6Qd9hBJ-JfoRWG8CqMM-50" value="file uploading" style="shape=process;whiteSpace=wrap;html=1;backgroundOutline=1;fontSize=20;" parent="1" vertex="1">
          <mxGeometry x="-451.5" y="330" width="220" height="81" as="geometry" />
        </mxCell>
        <mxCell id="-6Qd9hBJ-JfoRWG8CqMM-63" value="end" style="strokeWidth=2;html=1;shape=mxgraph.flowchart.terminator;whiteSpace=wrap;fontSize=20;" parent="1" vertex="1">
          <mxGeometry x="-832" y="840" width="100" height="40" as="geometry" />
        </mxCell>
        <mxCell id="eoaTedmNgXWOw_aE4vAn-12" value="" style="endArrow=classic;html=1;rounded=0;fontSize=20;exitX=0.5;exitY=0;exitDx=0;exitDy=0;entryX=0.5;entryY=1;entryDx=0;entryDy=0;entryPerimeter=0;edgeStyle=orthogonalEdgeStyle;" parent="1" source="-6Qd9hBJ-JfoRWG8CqMM-50" target="-6Qd9hBJ-JfoRWG8CqMM-63" edge="1">
          <mxGeometry width="50" height="50" relative="1" as="geometry">
            <mxPoint x="-402" y="280" as="sourcePoint" />
            <mxPoint x="-341.5" y="260" as="targetPoint" />
            <Array as="points">
              <mxPoint x="-341" y="280" />
              <mxPoint x="-110" y="280" />
              <mxPoint x="-110" y="910" />
              <mxPoint x="-782" y="910" />
            </Array>
          </mxGeometry>
        </mxCell>
        <mxCell id="YQ8rqOIDBzv-mz20P3oR-1" value="is right token?" style="rhombus;whiteSpace=wrap;html=1;fontSize=20;" parent="1" vertex="1">
          <mxGeometry x="-1377" y="630" width="110" height="90" as="geometry" />
        </mxCell>
        <mxCell id="oYvlfm-T1tRKNDpZ-ERh-2" value="right token" style="shape=parallelogram;perimeter=parallelogramPerimeter;whiteSpace=wrap;html=1;fixedSize=1;fontSize=20;" parent="1" vertex="1">
          <mxGeometry x="-1143" y="645" width="120" height="60" as="geometry" />
        </mxCell>
        <mxCell id="Ovo0ardWYibov8Grdef0-2" value="key, total_blocks,&amp;nbsp; max_packet_size" style="shape=parallelogram;perimeter=parallelogramPerimeter;whiteSpace=wrap;html=1;fixedSize=1;fontSize=20;" parent="1" vertex="1">
          <mxGeometry x="-434" y="485" width="185" height="70" as="geometry" />
        </mxCell>
        <mxCell id="Ovo0ardWYibov8Grdef0-3" value="contains key?" style="rhombus;whiteSpace=wrap;html=1;fontSize=20;" parent="1" vertex="1">
          <mxGeometry x="-408" y="634" width="133" height="80" as="geometry" />
        </mxCell>
        <mxCell id="Ovo0ardWYibov8Grdef0-4" value="" style="endArrow=classic;html=1;rounded=0;fontSize=20;entryX=0.5;entryY=1;entryDx=0;entryDy=0;exitX=0.5;exitY=0;exitDx=0;exitDy=0;" parent="1" source="Ovo0ardWYibov8Grdef0-3" target="Ovo0ardWYibov8Grdef0-2" edge="1">
          <mxGeometry width="50" height="50" relative="1" as="geometry">
            <mxPoint x="-482" y="550" as="sourcePoint" />
            <mxPoint x="-432" y="500" as="targetPoint" />
          </mxGeometry>
        </mxCell>
        <mxCell id="Ovo0ardWYibov8Grdef0-5" value="Yes" style="text;html=1;strokeColor=none;fillColor=none;align=center;verticalAlign=middle;whiteSpace=wrap;rounded=0;fontSize=20;" parent="1" vertex="1">
          <mxGeometry x="-347.5" y="591" width="60" height="30" as="geometry" />
        </mxCell>
        <mxCell id="ttjmdnBGzD6ecoWQYHYe-3" value="No" style="text;html=1;strokeColor=none;fillColor=none;align=center;verticalAlign=middle;whiteSpace=wrap;rounded=0;fontSize=20;" parent="1" vertex="1">
          <mxGeometry x="-1372" y="720" width="60" height="30" as="geometry" />
        </mxCell>
        <mxCell id="ttjmdnBGzD6ecoWQYHYe-4" value="No" style="text;html=1;strokeColor=none;fillColor=none;align=center;verticalAlign=middle;whiteSpace=wrap;rounded=0;fontSize=20;" parent="1" vertex="1">
          <mxGeometry x="-352" y="720" width="60" height="30" as="geometry" />
        </mxCell>
        <mxCell id="ttjmdnBGzD6ecoWQYHYe-12" value="&lt;span style=&quot;color: rgb(0, 0, 0); font-family: Helvetica; font-size: 20px; font-style: normal; font-variant-ligatures: normal; font-variant-caps: normal; font-weight: 400; letter-spacing: normal; orphans: 2; text-align: center; text-indent: 0px; text-transform: none; widows: 2; word-spacing: 0px; -webkit-text-stroke-width: 0px; background-color: rgb(248, 249, 250); text-decoration-thickness: initial; text-decoration-style: initial; text-decoration-color: initial; float: none; display: inline !important;&quot;&gt;Yes&lt;/span&gt;" style="text;whiteSpace=wrap;html=1;fontSize=20;" parent="1" vertex="1">
          <mxGeometry x="-1242" y="640" width="70" height="50" as="geometry" />
        </mxCell>
        <mxCell id="l5UMTd2hXtSKf6W3ow35-4" value="" style="endArrow=classic;html=1;rounded=0;fontSize=20;entryX=0.5;entryY=0;entryDx=0;entryDy=0;" parent="1" target="l5UMTd2hXtSKf6W3ow35-13" edge="1">
          <mxGeometry width="50" height="50" relative="1" as="geometry">
            <mxPoint x="-642" y="420" as="sourcePoint" />
            <mxPoint x="-642.9999999999995" y="491.8000000000002" as="targetPoint" />
          </mxGeometry>
        </mxCell>
        <mxCell id="l5UMTd2hXtSKf6W3ow35-7" value="" style="endArrow=classic;html=1;rounded=0;fontSize=20;exitX=0.5;exitY=1;exitDx=0;exitDy=0;entryX=0.5;entryY=0;entryDx=0;entryDy=0;" parent="1" source="l5UMTd2hXtSKf6W3ow35-15" target="l5UMTd2hXtSKf6W3ow35-12" edge="1">
          <mxGeometry width="50" height="50" relative="1" as="geometry">
            <mxPoint x="-817" y="420" as="sourcePoint" />
            <mxPoint x="-817" y="490" as="targetPoint" />
          </mxGeometry>
        </mxCell>
        <mxCell id="l5UMTd2hXtSKf6W3ow35-8" value="" style="endArrow=classic;html=1;rounded=0;fontSize=20;exitX=0.5;exitY=1;exitDx=0;exitDy=0;entryX=0.5;entryY=0;entryDx=0;entryDy=0;edgeStyle=orthogonalEdgeStyle;" parent="1" source="3j3Htk69wszxfPEUy7SM-2" target="l5UMTd2hXtSKf6W3ow35-15" edge="1">
          <mxGeometry width="50" height="50" relative="1" as="geometry">
            <mxPoint x="-742" y="280" as="sourcePoint" />
            <mxPoint x="-817" y="360" as="targetPoint" />
            <Array as="points">
              <mxPoint x="-742" y="330" />
              <mxPoint x="-822" y="330" />
            </Array>
          </mxGeometry>
        </mxCell>
        <mxCell id="l5UMTd2hXtSKf6W3ow35-10" value="" style="endArrow=classic;html=1;rounded=0;fontSize=20;exitX=1;exitY=0.5;exitDx=0;exitDy=0;" parent="1" source="YQ8rqOIDBzv-mz20P3oR-1" target="oYvlfm-T1tRKNDpZ-ERh-2" edge="1">
          <mxGeometry width="50" height="50" relative="1" as="geometry">
            <mxPoint x="-1022" y="800" as="sourcePoint" />
            <mxPoint x="-972" y="750" as="targetPoint" />
          </mxGeometry>
        </mxCell>
        <mxCell id="l5UMTd2hXtSKf6W3ow35-11" value="" style="endArrow=classic;html=1;rounded=0;fontSize=20;entryX=0;entryY=0.5;entryDx=0;entryDy=0;startArrow=none;exitX=1;exitY=0.5;exitDx=0;exitDy=0;" parent="1" source="oYvlfm-T1tRKNDpZ-ERh-2" target="-6Qd9hBJ-JfoRWG8CqMM-20" edge="1">
          <mxGeometry width="50" height="50" relative="1" as="geometry">
            <mxPoint x="-1000" y="675" as="sourcePoint" />
            <mxPoint x="-882" y="675" as="targetPoint" />
          </mxGeometry>
        </mxCell>
        <mxCell id="l5UMTd2hXtSKf6W3ow35-12" value="file_size" style="shape=parallelogram;perimeter=parallelogramPerimeter;whiteSpace=wrap;html=1;fixedSize=1;fontSize=20;" parent="1" vertex="1">
          <mxGeometry x="-882" y="490" width="120" height="60" as="geometry" />
        </mxCell>
        <mxCell id="l5UMTd2hXtSKf6W3ow35-13" value="binary_data" style="shape=parallelogram;perimeter=parallelogramPerimeter;whiteSpace=wrap;html=1;fixedSize=1;fontSize=20;" parent="1" vertex="1">
          <mxGeometry x="-710" y="495" width="140" height="55" as="geometry" />
        </mxCell>
        <mxCell id="l5UMTd2hXtSKf6W3ow35-14" value="convert to binary data" style="rounded=0;whiteSpace=wrap;html=1;fontSize=20;" parent="1" vertex="1">
          <mxGeometry x="-712" y="360" width="130" height="60" as="geometry" />
        </mxCell>
        <mxCell id="l5UMTd2hXtSKf6W3ow35-15" value="get file size" style="rounded=0;whiteSpace=wrap;html=1;fontSize=20;" parent="1" vertex="1">
          <mxGeometry x="-882" y="360" width="120" height="60" as="geometry" />
        </mxCell>
        <mxCell id="l5UMTd2hXtSKf6W3ow35-16" value="" style="endArrow=classic;html=1;rounded=0;fontSize=20;exitX=0.5;exitY=1;exitDx=0;exitDy=0;entryX=0.5;entryY=0;entryDx=0;entryDy=0;edgeStyle=orthogonalEdgeStyle;" parent="1" source="3j3Htk69wszxfPEUy7SM-2" target="l5UMTd2hXtSKf6W3ow35-14" edge="1">
          <mxGeometry width="50" height="50" relative="1" as="geometry">
            <mxPoint x="-742" y="280" as="sourcePoint" />
            <mxPoint x="-602" y="270" as="targetPoint" />
            <Array as="points">
              <mxPoint x="-742" y="330" />
              <mxPoint x="-647" y="330" />
            </Array>
          </mxGeometry>
        </mxCell>
        <mxCell id="l5UMTd2hXtSKf6W3ow35-17" value="" style="endArrow=classic;html=1;rounded=0;fontSize=20;exitX=1;exitY=0.5;exitDx=0;exitDy=0;entryX=0;entryY=0.5;entryDx=0;entryDy=0;edgeStyle=orthogonalEdgeStyle;" parent="1" source="-6Qd9hBJ-JfoRWG8CqMM-31" target="-6Qd9hBJ-JfoRWG8CqMM-20" edge="1">
          <mxGeometry width="50" height="50" relative="1" as="geometry">
            <mxPoint x="-982" y="610" as="sourcePoint" />
            <mxPoint x="-802" y="680" as="targetPoint" />
            <Array as="points">
              <mxPoint x="-902" y="515" />
              <mxPoint x="-902" y="600" />
              <mxPoint x="-822" y="600" />
              <mxPoint x="-822" y="675" />
            </Array>
          </mxGeometry>
        </mxCell>
        <mxCell id="l5UMTd2hXtSKf6W3ow35-18" value="" style="endArrow=classic;html=1;rounded=0;fontSize=20;exitX=0.5;exitY=1;exitDx=0;exitDy=0;entryX=0;entryY=0.5;entryDx=0;entryDy=0;edgeStyle=orthogonalEdgeStyle;" parent="1" source="l5UMTd2hXtSKf6W3ow35-12" target="-6Qd9hBJ-JfoRWG8CqMM-20" edge="1">
          <mxGeometry width="50" height="50" relative="1" as="geometry">
            <mxPoint x="-982" y="630" as="sourcePoint" />
            <mxPoint x="-932" y="580" as="targetPoint" />
          </mxGeometry>
        </mxCell>
        <mxCell id="l5UMTd2hXtSKf6W3ow35-20" value="" style="endArrow=classic;html=1;rounded=0;fontSize=20;exitX=1;exitY=0.5;exitDx=0;exitDy=0;entryX=0.5;entryY=1;entryDx=0;entryDy=0;edgeStyle=orthogonalEdgeStyle;" parent="1" source="l5UMTd2hXtSKf6W3ow35-13" target="-6Qd9hBJ-JfoRWG8CqMM-50" edge="1">
          <mxGeometry width="50" height="50" relative="1" as="geometry">
            <mxPoint x="-641" y="550" as="sourcePoint" />
            <mxPoint x="-492.00000000000045" y="640" as="targetPoint" />
            <Array as="points">
              <mxPoint x="-492" y="522" />
              <mxPoint x="-492" y="450" />
              <mxPoint x="-341" y="450" />
            </Array>
          </mxGeometry>
        </mxCell>
        <mxCell id="l5UMTd2hXtSKf6W3ow35-21" value="" style="endArrow=classic;html=1;rounded=0;fontSize=20;exitX=0.44;exitY=1;exitDx=0;exitDy=0;exitPerimeter=0;entryX=0.5;entryY=1;entryDx=0;entryDy=0;edgeStyle=orthogonalEdgeStyle;" parent="1" source="-6Qd9hBJ-JfoRWG8CqMM-31" target="-6Qd9hBJ-JfoRWG8CqMM-50" edge="1">
          <mxGeometry width="50" height="50" relative="1" as="geometry">
            <mxPoint x="-952" y="630" as="sourcePoint" />
            <mxPoint x="-312" y="430" as="targetPoint" />
            <Array as="points">
              <mxPoint x="-1080" y="600" />
              <mxPoint x="-992" y="600" />
              <mxPoint x="-992" y="770" />
              <mxPoint x="-162" y="770" />
              <mxPoint x="-162" y="450" />
              <mxPoint x="-341" y="450" />
            </Array>
          </mxGeometry>
        </mxCell>
        <mxCell id="l5UMTd2hXtSKf6W3ow35-22" value="" style="endArrow=classic;html=1;rounded=0;fontSize=20;entryX=0.5;entryY=1;entryDx=0;entryDy=0;exitX=0.5;exitY=0;exitDx=0;exitDy=0;" parent="1" source="Ovo0ardWYibov8Grdef0-2" target="-6Qd9hBJ-JfoRWG8CqMM-50" edge="1">
          <mxGeometry width="50" height="50" relative="1" as="geometry">
            <mxPoint x="-562" y="570" as="sourcePoint" />
            <mxPoint x="-512" y="520" as="targetPoint" />
          </mxGeometry>
        </mxCell>
        <mxCell id="l5UMTd2hXtSKf6W3ow35-23" value="" style="endArrow=classic;html=1;rounded=0;fontSize=20;exitX=0.5;exitY=1;exitDx=0;exitDy=0;entryX=0;entryY=0.5;entryDx=0;entryDy=0;entryPerimeter=0;edgeStyle=orthogonalEdgeStyle;" parent="1" source="YQ8rqOIDBzv-mz20P3oR-1" target="-6Qd9hBJ-JfoRWG8CqMM-63" edge="1">
          <mxGeometry width="50" height="50" relative="1" as="geometry">
            <mxPoint x="-912" y="770" as="sourcePoint" />
            <mxPoint x="-862" y="720" as="targetPoint" />
          </mxGeometry>
        </mxCell>
        <mxCell id="l5UMTd2hXtSKf6W3ow35-24" value="" style="endArrow=classic;html=1;rounded=0;fontSize=20;exitX=0.5;exitY=1;exitDx=0;exitDy=0;entryX=1;entryY=0.5;entryDx=0;entryDy=0;entryPerimeter=0;edgeStyle=orthogonalEdgeStyle;" parent="1" source="Ovo0ardWYibov8Grdef0-3" target="-6Qd9hBJ-JfoRWG8CqMM-63" edge="1">
          <mxGeometry width="50" height="50" relative="1" as="geometry">
            <mxPoint x="-472" y="860" as="sourcePoint" />
            <mxPoint x="-422" y="810" as="targetPoint" />
          </mxGeometry>
        </mxCell>
        <mxCell id="l5UMTd2hXtSKf6W3ow35-26" value="" style="endArrow=classic;html=1;rounded=0;fontSize=20;exitX=1;exitY=0.5;exitDx=0;exitDy=0;entryX=0;entryY=0.5;entryDx=0;entryDy=0;" parent="1" source="-6Qd9hBJ-JfoRWG8CqMM-20" target="Ovo0ardWYibov8Grdef0-3" edge="1">
          <mxGeometry width="50" height="50" relative="1" as="geometry">
            <mxPoint x="-562" y="710" as="sourcePoint" />
            <mxPoint x="-512" y="660" as="targetPoint" />
          </mxGeometry>
        </mxCell>
        <mxCell id="zaf0ZQmBkwLkJPaNS52M-1" value="" style="endArrow=classic;html=1;rounded=0;fontSize=20;entryX=1;entryY=0.5;entryDx=0;entryDy=0;exitX=0;exitY=0.5;exitDx=0;exitDy=0;" parent="1" source="-6Qd9hBJ-JfoRWG8CqMM-31" target="-6Qd9hBJ-JfoRWG8CqMM-17" edge="1">
          <mxGeometry width="50" height="50" relative="1" as="geometry">
            <mxPoint x="-1207" y="530" as="sourcePoint" />
            <mxPoint x="-1157" y="480" as="targetPoint" />
          </mxGeometry>
        </mxCell>
        <mxCell id="3j3Htk69wszxfPEUy7SM-1" value="file" style="shape=cylinder3;whiteSpace=wrap;html=1;boundedLbl=1;backgroundOutline=1;size=15;fontSize=20;" parent="1" vertex="1">
          <mxGeometry x="-772" y="110" width="60" height="80" as="geometry" />
        </mxCell>
        <mxCell id="3j3Htk69wszxfPEUy7SM-2" value="open file" style="rounded=1;whiteSpace=wrap;html=1;fontSize=20;" parent="1" vertex="1">
          <mxGeometry x="-802" y="240" width="120" height="60" as="geometry" />
        </mxCell>
        <mxCell id="3j3Htk69wszxfPEUy7SM-3" value="id" style="shape=parallelogram;perimeter=parallelogramPerimeter;whiteSpace=wrap;html=1;fixedSize=1;fontSize=20;" parent="1" vertex="1">
          <mxGeometry x="-1381" y="250" width="120" height="60" as="geometry" />
        </mxCell>
        <mxCell id="3j3Htk69wszxfPEUy7SM-4" value="file" style="shape=parallelogram;perimeter=parallelogramPerimeter;whiteSpace=wrap;html=1;fixedSize=1;fontSize=20;" parent="1" vertex="1">
          <mxGeometry x="-1077" y="250" width="120" height="60" as="geometry" />
        </mxCell>
        <mxCell id="3j3Htk69wszxfPEUy7SM-6" value="" style="endArrow=classic;html=1;rounded=0;fontSize=20;exitX=0.5;exitY=1;exitDx=0;exitDy=0;entryX=1;entryY=0.5;entryDx=0;entryDy=0;edgeStyle=orthogonalEdgeStyle;" parent="1" source="3j3Htk69wszxfPEUy7SM-3" target="-6Qd9hBJ-JfoRWG8CqMM-17" edge="1">
          <mxGeometry width="50" height="50" relative="1" as="geometry">
            <mxPoint x="-1337" y="420" as="sourcePoint" />
            <mxPoint x="-1287" y="370" as="targetPoint" />
            <Array as="points">
              <mxPoint x="-1321" y="395" />
              <mxPoint x="-1190" y="395" />
              <mxPoint x="-1190" y="515" />
            </Array>
          </mxGeometry>
        </mxCell>
        <mxCell id="3j3Htk69wszxfPEUy7SM-8" value="" style="endArrow=classic;html=1;rounded=0;fontSize=20;exitX=0.5;exitY=1;exitDx=0;exitDy=0;entryX=0.5;entryY=0;entryDx=0;entryDy=0;edgeStyle=orthogonalEdgeStyle;" parent="1" source="3j3Htk69wszxfPEUy7SM-4" target="3j3Htk69wszxfPEUy7SM-2" edge="1">
          <mxGeometry width="50" height="50" relative="1" as="geometry">
            <mxPoint x="-957" y="200" as="sourcePoint" />
            <mxPoint x="-907" y="150" as="targetPoint" />
            <Array as="points">
              <mxPoint x="-1017" y="320" />
              <mxPoint x="-879" y="320" />
              <mxPoint x="-879" y="220" />
              <mxPoint x="-742" y="220" />
            </Array>
          </mxGeometry>
        </mxCell>
        <mxCell id="3j3Htk69wszxfPEUy7SM-9" value="" style="endArrow=classic;html=1;rounded=0;fontSize=20;exitX=0.5;exitY=0;exitDx=0;exitDy=0;entryX=0.5;entryY=1;entryDx=0;entryDy=0;entryPerimeter=0;" parent="1" source="3j3Htk69wszxfPEUy7SM-2" target="3j3Htk69wszxfPEUy7SM-1" edge="1">
          <mxGeometry width="50" height="50" relative="1" as="geometry">
            <mxPoint x="-657" y="170" as="sourcePoint" />
            <mxPoint x="-607" y="120" as="targetPoint" />
          </mxGeometry>
        </mxCell>
        <mxCell id="3j3Htk69wszxfPEUy7SM-11" value="" style="endArrow=none;html=1;rounded=0;fontSize=20;entryX=0.5;entryY=0;entryDx=0;entryDy=0;edgeStyle=orthogonalEdgeStyle;" parent="1" edge="1">
          <mxGeometry width="50" height="50" relative="1" as="geometry">
            <mxPoint x="-1166.9999999999998" y="210.0000000000001" as="sourcePoint" />
            <mxPoint x="-1166.9999999999998" y="217.9999999999999" as="targetPoint" />
            <Array as="points" />
          </mxGeometry>
        </mxCell>
        <mxCell id="3j3Htk69wszxfPEUy7SM-20" value="" style="endArrow=classic;html=1;rounded=0;fontSize=20;exitX=0.5;exitY=1;exitDx=0;exitDy=0;entryX=0.5;entryY=0;entryDx=0;entryDy=0;edgeStyle=orthogonalEdgeStyle;" parent="1" source="-6Qd9hBJ-JfoRWG8CqMM-45" target="3j3Htk69wszxfPEUy7SM-3" edge="1">
          <mxGeometry width="50" height="50" relative="1" as="geometry">
            <mxPoint x="-1340" y="240" as="sourcePoint" />
            <mxPoint x="-1290" y="190" as="targetPoint" />
          </mxGeometry>
        </mxCell>
        <mxCell id="3j3Htk69wszxfPEUy7SM-21" value="" style="endArrow=classic;html=1;rounded=0;fontSize=20;exitX=0.5;exitY=1;exitDx=0;exitDy=0;entryX=0.5;entryY=0;entryDx=0;entryDy=0;edgeStyle=orthogonalEdgeStyle;" parent="1" source="-6Qd9hBJ-JfoRWG8CqMM-45" target="3j3Htk69wszxfPEUy7SM-4" edge="1">
          <mxGeometry width="50" height="50" relative="1" as="geometry">
            <mxPoint x="-1420" y="300" as="sourcePoint" />
            <mxPoint x="-1370" y="250" as="targetPoint" />
          </mxGeometry>
        </mxCell>
      </root>
    </mxGraphModel>
  </diagram>
  <diagram id="s8FdkKS_-ZYwBO41oHSb" name="acuqire authorization">
    <mxGraphModel dx="1038" dy="1708" grid="1" gridSize="10" guides="1" tooltips="1" connect="1" arrows="1" fold="1" page="1" pageScale="1" pageWidth="827" pageHeight="1169" math="0" shadow="0">
      <root>
        <mxCell id="0" />
        <mxCell id="1" parent="0" />
        <mxCell id="vs0AHVepLjFOD6Hri-eq-1" value="" style="endArrow=classic;html=1;rounded=0;fontSize=18;elbow=vertical;entryX=0.5;entryY=0;entryDx=0;entryDy=0;" parent="1" source="5nA7Y5ohjkwqtgAAo1Wv-15" target="5nA7Y5ohjkwqtgAAo1Wv-17" edge="1">
          <mxGeometry width="50" height="50" relative="1" as="geometry">
            <mxPoint x="169.5" y="90" as="sourcePoint" />
            <mxPoint x="170" y="150" as="targetPoint" />
          </mxGeometry>
        </mxCell>
        <mxCell id="5nA7Y5ohjkwqtgAAo1Wv-1" value="json_data" style="shape=parallelogram;perimeter=parallelogramPerimeter;whiteSpace=wrap;html=1;fixedSize=1;fontSize=18;" parent="1" vertex="1">
          <mxGeometry x="300" y="185" width="140" height="60" as="geometry" />
        </mxCell>
        <mxCell id="5nA7Y5ohjkwqtgAAo1Wv-2" value="" style="endArrow=classic;html=1;rounded=0;fontSize=18;" parent="1" source="5nA7Y5ohjkwqtgAAo1Wv-1" edge="1">
          <mxGeometry width="50" height="50" relative="1" as="geometry">
            <mxPoint x="370" y="270" as="sourcePoint" />
            <mxPoint x="370" y="290.71067811865476" as="targetPoint" />
          </mxGeometry>
        </mxCell>
        <mxCell id="5nA7Y5ohjkwqtgAAo1Wv-5" value="make packet" style="rounded=0;whiteSpace=wrap;html=1;fontSize=18;" parent="1" vertex="1">
          <mxGeometry x="310" y="290" width="120" height="60" as="geometry" />
        </mxCell>
        <mxCell id="5nA7Y5ohjkwqtgAAo1Wv-6" value="main" style="shape=process;whiteSpace=wrap;html=1;backgroundOutline=1;fontSize=18;" parent="1" vertex="1">
          <mxGeometry x="110" y="290" width="120" height="60" as="geometry" />
        </mxCell>
        <mxCell id="5nA7Y5ohjkwqtgAAo1Wv-7" value="" style="endArrow=classic;html=1;rounded=0;fontSize=18;exitX=0.5;exitY=1;exitDx=0;exitDy=0;entryX=0.571;entryY=0.02;entryDx=0;entryDy=0;entryPerimeter=0;" parent="1" source="5nA7Y5ohjkwqtgAAo1Wv-6" target="5nA7Y5ohjkwqtgAAo1Wv-10" edge="1">
          <mxGeometry width="50" height="50" relative="1" as="geometry">
            <mxPoint x="220" y="360" as="sourcePoint" />
            <mxPoint x="170" y="410" as="targetPoint" />
          </mxGeometry>
        </mxCell>
        <mxCell id="5nA7Y5ohjkwqtgAAo1Wv-8" value="" style="endArrow=classic;html=1;rounded=0;fontSize=18;exitX=0.5;exitY=1;exitDx=0;exitDy=0;" parent="1" source="5nA7Y5ohjkwqtgAAo1Wv-5" edge="1">
          <mxGeometry width="50" height="50" relative="1" as="geometry">
            <mxPoint x="380" y="460" as="sourcePoint" />
            <mxPoint x="370" y="410" as="targetPoint" />
          </mxGeometry>
        </mxCell>
        <mxCell id="5nA7Y5ohjkwqtgAAo1Wv-9" value="packet" style="shape=parallelogram;perimeter=parallelogramPerimeter;whiteSpace=wrap;html=1;fixedSize=1;fontSize=18;" parent="1" vertex="1">
          <mxGeometry x="310" y="410" width="120" height="60" as="geometry" />
        </mxCell>
        <mxCell id="5nA7Y5ohjkwqtgAAo1Wv-10" value="clientSocket" style="shape=parallelogram;perimeter=parallelogramPerimeter;whiteSpace=wrap;html=1;fixedSize=1;fontSize=18;" parent="1" vertex="1">
          <mxGeometry x="90" y="410" width="140" height="60" as="geometry" />
        </mxCell>
        <mxCell id="5nA7Y5ohjkwqtgAAo1Wv-11" value="send packet to server side" style="rounded=0;whiteSpace=wrap;html=1;fontSize=18;" parent="1" vertex="1">
          <mxGeometry x="210" y="540" width="120" height="60" as="geometry" />
        </mxCell>
        <mxCell id="5nA7Y5ohjkwqtgAAo1Wv-12" value="" style="endArrow=classic;html=1;rounded=0;fontSize=18;exitX=0.5;exitY=1;exitDx=0;exitDy=0;entryX=0.5;entryY=0;entryDx=0;entryDy=0;edgeStyle=orthogonalEdgeStyle;" parent="1" source="5nA7Y5ohjkwqtgAAo1Wv-10" target="5nA7Y5ohjkwqtgAAo1Wv-11" edge="1">
          <mxGeometry width="50" height="50" relative="1" as="geometry">
            <mxPoint x="230" y="530" as="sourcePoint" />
            <mxPoint x="280" y="480" as="targetPoint" />
          </mxGeometry>
        </mxCell>
        <mxCell id="5nA7Y5ohjkwqtgAAo1Wv-13" value="" style="endArrow=classic;html=1;rounded=0;fontSize=18;exitX=0.5;exitY=1;exitDx=0;exitDy=0;entryX=0.5;entryY=0;entryDx=0;entryDy=0;edgeStyle=orthogonalEdgeStyle;" parent="1" source="5nA7Y5ohjkwqtgAAo1Wv-9" target="5nA7Y5ohjkwqtgAAo1Wv-11" edge="1">
          <mxGeometry width="50" height="50" relative="1" as="geometry">
            <mxPoint x="390" y="550" as="sourcePoint" />
            <mxPoint x="440" y="500" as="targetPoint" />
          </mxGeometry>
        </mxCell>
        <mxCell id="5nA7Y5ohjkwqtgAAo1Wv-14" value="start" style="ellipse;whiteSpace=wrap;html=1;fontSize=18;" parent="1" vertex="1">
          <mxGeometry x="310" y="-115" width="120" height="50" as="geometry" />
        </mxCell>
        <mxCell id="5nA7Y5ohjkwqtgAAo1Wv-15" value="username" style="shape=parallelogram;perimeter=parallelogramPerimeter;whiteSpace=wrap;html=1;fixedSize=1;fontSize=18;" parent="1" vertex="1">
          <mxGeometry x="310" y="-20" width="120" height="60" as="geometry" />
        </mxCell>
        <mxCell id="5nA7Y5ohjkwqtgAAo1Wv-16" value="" style="endArrow=classic;html=1;rounded=0;fontSize=18;exitX=0.5;exitY=1;exitDx=0;exitDy=0;entryX=0.5;entryY=0;entryDx=0;entryDy=0;" parent="1" source="5nA7Y5ohjkwqtgAAo1Wv-14" target="5nA7Y5ohjkwqtgAAo1Wv-15" edge="1">
          <mxGeometry width="50" height="50" relative="1" as="geometry">
            <mxPoint x="300" y="160" as="sourcePoint" />
            <mxPoint x="170" y="30" as="targetPoint" />
          </mxGeometry>
        </mxCell>
        <mxCell id="5nA7Y5ohjkwqtgAAo1Wv-17" value="make json_data in dictionary form" style="rounded=0;whiteSpace=wrap;html=1;fontSize=18;" parent="1" vertex="1">
          <mxGeometry x="297.5" y="80" width="145" height="65" as="geometry" />
        </mxCell>
        <mxCell id="5nA7Y5ohjkwqtgAAo1Wv-18" value="" style="endArrow=classic;html=1;rounded=0;fontSize=18;exitX=0.5;exitY=1;exitDx=0;exitDy=0;entryX=0.5;entryY=0;entryDx=0;entryDy=0;" parent="1" source="5nA7Y5ohjkwqtgAAo1Wv-17" target="5nA7Y5ohjkwqtgAAo1Wv-1" edge="1">
          <mxGeometry width="50" height="50" relative="1" as="geometry">
            <mxPoint x="260" y="180" as="sourcePoint" />
            <mxPoint x="310" y="130" as="targetPoint" />
          </mxGeometry>
        </mxCell>
        <mxCell id="4RbUdH4ijoUuBF44d2Hl-1" value="" style="endArrow=classic;html=1;rounded=0;fontSize=18;exitX=1;exitY=0.5;exitDx=0;exitDy=0;entryX=0;entryY=0.5;entryDx=0;entryDy=0;" parent="1" source="5nA7Y5ohjkwqtgAAo1Wv-11" target="4RbUdH4ijoUuBF44d2Hl-2" edge="1">
          <mxGeometry width="50" height="50" relative="1" as="geometry">
            <mxPoint x="470" y="550" as="sourcePoint" />
            <mxPoint x="540" y="570" as="targetPoint" />
          </mxGeometry>
        </mxCell>
        <mxCell id="4RbUdH4ijoUuBF44d2Hl-2" value="get tcp packet from sever side" style="rounded=0;whiteSpace=wrap;html=1;fontSize=18;" parent="1" vertex="1">
          <mxGeometry x="685" y="540" width="130" height="60" as="geometry" />
        </mxCell>
        <mxCell id="4RbUdH4ijoUuBF44d2Hl-4" value="received_json_data" style="shape=parallelogram;perimeter=parallelogramPerimeter;whiteSpace=wrap;html=1;fixedSize=1;fontSize=18;" parent="1" vertex="1">
          <mxGeometry x="650" y="405" width="200" height="65" as="geometry" />
        </mxCell>
        <mxCell id="4RbUdH4ijoUuBF44d2Hl-5" value="" style="endArrow=classic;html=1;rounded=0;fontSize=18;exitX=0.5;exitY=0;exitDx=0;exitDy=0;entryX=0.5;entryY=1;entryDx=0;entryDy=0;" parent="1" source="4RbUdH4ijoUuBF44d2Hl-2" target="4RbUdH4ijoUuBF44d2Hl-4" edge="1">
          <mxGeometry width="50" height="50" relative="1" as="geometry">
            <mxPoint x="640" y="540" as="sourcePoint" />
            <mxPoint x="690" y="490" as="targetPoint" />
          </mxGeometry>
        </mxCell>
        <mxCell id="4RbUdH4ijoUuBF44d2Hl-6" value="contains FIELD_TOKEN?" style="rhombus;whiteSpace=wrap;html=1;fontSize=18;" parent="1" vertex="1">
          <mxGeometry x="650" y="270" width="200" height="90" as="geometry" />
        </mxCell>
        <mxCell id="4RbUdH4ijoUuBF44d2Hl-7" value="" style="endArrow=classic;html=1;rounded=0;fontSize=18;exitX=0.5;exitY=0;exitDx=0;exitDy=0;entryX=0.5;entryY=1;entryDx=0;entryDy=0;" parent="1" source="4RbUdH4ijoUuBF44d2Hl-4" target="4RbUdH4ijoUuBF44d2Hl-6" edge="1">
          <mxGeometry width="50" height="50" relative="1" as="geometry">
            <mxPoint x="680" y="400" as="sourcePoint" />
            <mxPoint x="730" y="350" as="targetPoint" />
          </mxGeometry>
        </mxCell>
        <mxCell id="4RbUdH4ijoUuBF44d2Hl-8" value="" style="endArrow=classic;html=1;rounded=0;fontSize=18;exitX=0;exitY=0.5;exitDx=0;exitDy=0;edgeStyle=orthogonalEdgeStyle;entryX=0.5;entryY=1;entryDx=0;entryDy=0;entryPerimeter=0;" parent="1" source="4RbUdH4ijoUuBF44d2Hl-6" target="4RbUdH4ijoUuBF44d2Hl-10" edge="1">
          <mxGeometry width="50" height="50" relative="1" as="geometry">
            <mxPoint x="510" y="330" as="sourcePoint" />
            <mxPoint x="600" y="240" as="targetPoint" />
            <Array as="points">
              <mxPoint x="540" y="315" />
            </Array>
          </mxGeometry>
        </mxCell>
        <mxCell id="4RbUdH4ijoUuBF44d2Hl-10" value="&quot;Fail to get token&quot;" style="strokeWidth=2;html=1;shape=mxgraph.flowchart.display;whiteSpace=wrap;fontSize=18;" parent="1" vertex="1">
          <mxGeometry x="480" y="180" width="120" height="70" as="geometry" />
        </mxCell>
        <mxCell id="F0afI82ot8t4eyHYKiDZ-4" value="No" style="text;html=1;strokeColor=none;fillColor=none;align=center;verticalAlign=middle;whiteSpace=wrap;rounded=0;fontSize=18;" parent="1" vertex="1">
          <mxGeometry x="560" y="290" width="60" height="30" as="geometry" />
        </mxCell>
        <mxCell id="F0afI82ot8t4eyHYKiDZ-5" value="" style="endArrow=classic;html=1;rounded=0;fontSize=18;exitX=1;exitY=0.5;exitDx=0;exitDy=0;entryX=0.5;entryY=1;entryDx=0;entryDy=0;edgeStyle=orthogonalEdgeStyle;" parent="1" source="4RbUdH4ijoUuBF44d2Hl-6" target="F0afI82ot8t4eyHYKiDZ-8" edge="1">
          <mxGeometry width="50" height="50" relative="1" as="geometry">
            <mxPoint x="745" y="320" as="sourcePoint" />
            <mxPoint x="795" y="270" as="targetPoint" />
          </mxGeometry>
        </mxCell>
        <mxCell id="F0afI82ot8t4eyHYKiDZ-7" value="" style="endArrow=classic;html=1;rounded=0;fontSize=18;exitX=0;exitY=0.5;exitDx=0;exitDy=0;entryX=1;entryY=0.5;entryDx=0;entryDy=0;entryPerimeter=0;" parent="1" source="F0afI82ot8t4eyHYKiDZ-8" target="F0afI82ot8t4eyHYKiDZ-9" edge="1">
          <mxGeometry width="50" height="50" relative="1" as="geometry">
            <mxPoint x="800" y="120" as="sourcePoint" />
            <mxPoint x="850" y="70" as="targetPoint" />
          </mxGeometry>
        </mxCell>
        <mxCell id="F0afI82ot8t4eyHYKiDZ-8" value="is token correct?" style="rhombus;whiteSpace=wrap;html=1;fontSize=18;" parent="1" vertex="1">
          <mxGeometry x="850" y="170" width="130" height="80" as="geometry" />
        </mxCell>
        <mxCell id="F0afI82ot8t4eyHYKiDZ-9" value="&quot;Tolen is incorrect&quot;" style="strokeWidth=2;html=1;shape=mxgraph.flowchart.display;whiteSpace=wrap;fontSize=18;" parent="1" vertex="1">
          <mxGeometry x="655" y="175" width="130" height="70" as="geometry" />
        </mxCell>
        <mxCell id="F0afI82ot8t4eyHYKiDZ-10" value="Yes" style="text;html=1;strokeColor=none;fillColor=none;align=center;verticalAlign=middle;whiteSpace=wrap;rounded=0;fontSize=18;" parent="1" vertex="1">
          <mxGeometry x="850" y="290" width="60" height="30" as="geometry" />
        </mxCell>
        <mxCell id="F0afI82ot8t4eyHYKiDZ-15" value="" style="endArrow=classic;html=1;rounded=0;fontSize=18;exitX=0.5;exitY=0;exitDx=0;exitDy=0;entryX=0.5;entryY=1;entryDx=0;entryDy=0;edgeStyle=orthogonalEdgeStyle;" parent="1" source="F0afI82ot8t4eyHYKiDZ-8" target="F0afI82ot8t4eyHYKiDZ-17" edge="1">
          <mxGeometry width="50" height="50" relative="1" as="geometry">
            <mxPoint x="920" y="120" as="sourcePoint" />
            <mxPoint x="920" y="70" as="targetPoint" />
          </mxGeometry>
        </mxCell>
        <mxCell id="F0afI82ot8t4eyHYKiDZ-17" value="get checked token" style="rounded=0;whiteSpace=wrap;html=1;fontSize=18;" parent="1" vertex="1">
          <mxGeometry x="855" y="70" width="120" height="60" as="geometry" />
        </mxCell>
        <mxCell id="F0afI82ot8t4eyHYKiDZ-18" value="main" style="shape=process;whiteSpace=wrap;html=1;backgroundOutline=1;fontSize=18;" parent="1" vertex="1">
          <mxGeometry x="660" y="-30" width="120" height="60" as="geometry" />
        </mxCell>
        <mxCell id="F0afI82ot8t4eyHYKiDZ-19" value="checked_token" style="shape=parallelogram;perimeter=parallelogramPerimeter;whiteSpace=wrap;html=1;fixedSize=1;fontSize=18;" parent="1" vertex="1">
          <mxGeometry x="839" y="-35" width="150" height="70" as="geometry" />
        </mxCell>
        <mxCell id="F0afI82ot8t4eyHYKiDZ-20" value="" style="endArrow=classic;html=1;rounded=0;fontSize=18;exitX=0.5;exitY=0;exitDx=0;exitDy=0;" parent="1" source="F0afI82ot8t4eyHYKiDZ-17" target="F0afI82ot8t4eyHYKiDZ-19" edge="1">
          <mxGeometry width="50" height="50" relative="1" as="geometry">
            <mxPoint x="780" y="40" as="sourcePoint" />
            <mxPoint x="830" y="-10" as="targetPoint" />
          </mxGeometry>
        </mxCell>
        <mxCell id="F0afI82ot8t4eyHYKiDZ-21" value="" style="endArrow=classic;html=1;rounded=0;fontSize=18;exitX=0;exitY=0.5;exitDx=0;exitDy=0;entryX=1;entryY=0.5;entryDx=0;entryDy=0;" parent="1" source="F0afI82ot8t4eyHYKiDZ-19" target="F0afI82ot8t4eyHYKiDZ-18" edge="1">
          <mxGeometry width="50" height="50" relative="1" as="geometry">
            <mxPoint x="720" y="-130" as="sourcePoint" />
            <mxPoint x="770" y="-180" as="targetPoint" />
          </mxGeometry>
        </mxCell>
        <mxCell id="F0afI82ot8t4eyHYKiDZ-22" value="Yes" style="text;html=1;strokeColor=none;fillColor=none;align=center;verticalAlign=middle;whiteSpace=wrap;rounded=0;fontSize=18;" parent="1" vertex="1">
          <mxGeometry x="910" y="140" width="60" height="30" as="geometry" />
        </mxCell>
        <mxCell id="F0afI82ot8t4eyHYKiDZ-23" value="No" style="text;html=1;strokeColor=none;fillColor=none;align=center;verticalAlign=middle;whiteSpace=wrap;rounded=0;fontSize=18;" parent="1" vertex="1">
          <mxGeometry x="790" y="185" width="60" height="30" as="geometry" />
        </mxCell>
        <mxCell id="F0afI82ot8t4eyHYKiDZ-25" value="end" style="strokeWidth=2;html=1;shape=mxgraph.flowchart.terminator;whiteSpace=wrap;fontSize=18;" parent="1" vertex="1">
          <mxGeometry x="670" y="-110" width="100" height="40" as="geometry" />
        </mxCell>
        <mxCell id="F0afI82ot8t4eyHYKiDZ-26" value="" style="endArrow=classic;html=1;rounded=0;fontSize=18;exitX=0.5;exitY=0;exitDx=0;exitDy=0;entryX=0.5;entryY=1;entryDx=0;entryDy=0;entryPerimeter=0;" parent="1" source="F0afI82ot8t4eyHYKiDZ-18" target="F0afI82ot8t4eyHYKiDZ-25" edge="1">
          <mxGeometry width="50" height="50" relative="1" as="geometry">
            <mxPoint x="510" y="-30" as="sourcePoint" />
            <mxPoint x="560" y="-80" as="targetPoint" />
          </mxGeometry>
        </mxCell>
        <mxCell id="AzJyOox_Aek7EbDCYvm7-1" value="False" style="shape=parallelogram;perimeter=parallelogramPerimeter;whiteSpace=wrap;html=1;fixedSize=1;fontSize=18;" parent="1" vertex="1">
          <mxGeometry x="660" y="70" width="120" height="60" as="geometry" />
        </mxCell>
        <mxCell id="AzJyOox_Aek7EbDCYvm7-3" value="" style="endArrow=classic;html=1;rounded=0;fontSize=18;exitX=0.5;exitY=0;exitDx=0;exitDy=0;exitPerimeter=0;entryX=0.5;entryY=1;entryDx=0;entryDy=0;edgeStyle=orthogonalEdgeStyle;" parent="1" source="4RbUdH4ijoUuBF44d2Hl-10" target="AzJyOox_Aek7EbDCYvm7-1" edge="1">
          <mxGeometry width="50" height="50" relative="1" as="geometry">
            <mxPoint x="520" y="130" as="sourcePoint" />
            <mxPoint x="570" y="80" as="targetPoint" />
          </mxGeometry>
        </mxCell>
        <mxCell id="AzJyOox_Aek7EbDCYvm7-4" value="" style="endArrow=classic;html=1;rounded=0;fontSize=18;exitX=0.5;exitY=0;exitDx=0;exitDy=0;exitPerimeter=0;entryX=0.5;entryY=1;entryDx=0;entryDy=0;" parent="1" source="F0afI82ot8t4eyHYKiDZ-9" target="AzJyOox_Aek7EbDCYvm7-1" edge="1">
          <mxGeometry width="50" height="50" relative="1" as="geometry">
            <mxPoint x="600" y="260" as="sourcePoint" />
            <mxPoint x="720" y="130" as="targetPoint" />
          </mxGeometry>
        </mxCell>
        <mxCell id="AzJyOox_Aek7EbDCYvm7-6" value="" style="endArrow=classic;html=1;rounded=0;fontSize=18;exitX=0.5;exitY=0;exitDx=0;exitDy=0;entryX=0.5;entryY=1;entryDx=0;entryDy=0;" parent="1" source="AzJyOox_Aek7EbDCYvm7-1" target="F0afI82ot8t4eyHYKiDZ-18" edge="1">
          <mxGeometry width="50" height="50" relative="1" as="geometry">
            <mxPoint x="490" as="sourcePoint" />
            <mxPoint x="540" y="-50" as="targetPoint" />
          </mxGeometry>
        </mxCell>
        <mxCell id="4IVgC1ICDcR-yaEEelzb-1" value="" style="endArrow=classic;html=1;rounded=0;fontSize=18;exitX=0.5;exitY=1;exitDx=0;exitDy=0;entryX=0;entryY=0.5;entryDx=0;entryDy=0;edgeStyle=orthogonalEdgeStyle;" parent="1" source="5nA7Y5ohjkwqtgAAo1Wv-6" target="5nA7Y5ohjkwqtgAAo1Wv-15" edge="1">
          <mxGeometry width="50" height="50" relative="1" as="geometry">
            <mxPoint x="130" y="230" as="sourcePoint" />
            <mxPoint x="180" y="70" as="targetPoint" />
            <Array as="points">
              <mxPoint x="170" y="380" />
              <mxPoint x="260" y="380" />
              <mxPoint x="260" y="10" />
            </Array>
          </mxGeometry>
        </mxCell>
        <mxCell id="ygoTwtQVxbRjww5B7zJL-1" value="" style="endArrow=classic;html=1;rounded=0;fontSize=18;entryX=0.5;entryY=1;entryDx=0;entryDy=0;entryPerimeter=0;exitX=0.5;exitY=0;exitDx=0;exitDy=0;" parent="1" source="F0afI82ot8t4eyHYKiDZ-19" target="ygoTwtQVxbRjww5B7zJL-2" edge="1">
          <mxGeometry width="50" height="50" relative="1" as="geometry">
            <mxPoint x="810" y="-40" as="sourcePoint" />
            <mxPoint x="860" y="-90" as="targetPoint" />
          </mxGeometry>
        </mxCell>
        <mxCell id="ygoTwtQVxbRjww5B7zJL-2" value="display" style="strokeWidth=2;html=1;shape=mxgraph.flowchart.display;whiteSpace=wrap;fontSize=18;" parent="1" vertex="1">
          <mxGeometry x="864" y="-115" width="100" height="50" as="geometry" />
        </mxCell>
      </root>
    </mxGraphModel>
  </diagram>
  <diagram id="fsL2LG9xsd5c8nXXa-no" name="fetch uploading plan">
    <mxGraphModel dx="1038" dy="483" grid="1" gridSize="10" guides="1" tooltips="1" connect="1" arrows="1" fold="1" page="1" pageScale="1" pageWidth="827" pageHeight="1169" math="0" shadow="0">
      <root>
        <mxCell id="0" />
        <mxCell id="1" parent="0" />
        <mxCell id="KXyTARv3bd8J9leRmV-G-1" value="start" style="ellipse;whiteSpace=wrap;html=1;fontSize=18;" parent="1" vertex="1">
          <mxGeometry x="189" y="60" width="120" height="50" as="geometry" />
        </mxCell>
        <mxCell id="r7WoOYZ-JSda7CAHhZQG-1" value="" style="endArrow=classic;html=1;rounded=0;fontSize=18;exitX=0.5;exitY=1;exitDx=0;exitDy=0;entryX=0.5;entryY=0;entryDx=0;entryDy=0;" parent="1" source="KXyTARv3bd8J9leRmV-G-1" target="lYxE_KjOH6ucg65rWOpo-2" edge="1">
          <mxGeometry width="50" height="50" relative="1" as="geometry">
            <mxPoint x="190" y="210" as="sourcePoint" />
            <mxPoint x="250" y="160" as="targetPoint" />
          </mxGeometry>
        </mxCell>
        <mxCell id="lYxE_KjOH6ucg65rWOpo-1" value="main" style="shape=process;whiteSpace=wrap;html=1;backgroundOutline=1;fontSize=18;" parent="1" vertex="1">
          <mxGeometry x="20" y="161" width="120" height="60" as="geometry" />
        </mxCell>
        <mxCell id="lYxE_KjOH6ucg65rWOpo-2" value="token, file_size" style="shape=parallelogram;perimeter=parallelogramPerimeter;whiteSpace=wrap;html=1;fixedSize=1;fontSize=18;" parent="1" vertex="1">
          <mxGeometry x="179" y="156" width="140" height="70" as="geometry" />
        </mxCell>
        <mxCell id="lYxE_KjOH6ucg65rWOpo-3" value="" style="endArrow=classic;html=1;rounded=0;fontSize=18;exitX=1;exitY=0.5;exitDx=0;exitDy=0;entryX=0;entryY=0.5;entryDx=0;entryDy=0;" parent="1" source="lYxE_KjOH6ucg65rWOpo-1" target="lYxE_KjOH6ucg65rWOpo-2" edge="1">
          <mxGeometry width="50" height="50" relative="1" as="geometry">
            <mxPoint x="100" y="130" as="sourcePoint" />
            <mxPoint x="150" y="80" as="targetPoint" />
          </mxGeometry>
        </mxCell>
        <mxCell id="lYxE_KjOH6ucg65rWOpo-4" value="" style="endArrow=classic;html=1;rounded=0;fontSize=18;exitX=0.5;exitY=1;exitDx=0;exitDy=0;entryX=0.5;entryY=0;entryDx=0;entryDy=0;" parent="1" source="lYxE_KjOH6ucg65rWOpo-2" target="lYxE_KjOH6ucg65rWOpo-5" edge="1">
          <mxGeometry width="50" height="50" relative="1" as="geometry">
            <mxPoint x="260" y="330" as="sourcePoint" />
            <mxPoint x="250" y="270" as="targetPoint" />
          </mxGeometry>
        </mxCell>
        <mxCell id="lYxE_KjOH6ucg65rWOpo-5" value="make json_data in dictionary form" style="rounded=0;whiteSpace=wrap;html=1;fontSize=18;" parent="1" vertex="1">
          <mxGeometry x="180" y="270" width="140" height="70" as="geometry" />
        </mxCell>
        <mxCell id="M_jtrBnHkbyMmADLlw9q-1" value="" style="endArrow=classic;html=1;rounded=0;fontSize=18;exitX=0.5;exitY=1;exitDx=0;exitDy=0;entryX=0.5;entryY=0;entryDx=0;entryDy=0;" parent="1" source="lYxE_KjOH6ucg65rWOpo-5" target="M_jtrBnHkbyMmADLlw9q-3" edge="1">
          <mxGeometry width="50" height="50" relative="1" as="geometry">
            <mxPoint x="240" y="350" as="sourcePoint" />
            <mxPoint x="250" y="400" as="targetPoint" />
          </mxGeometry>
        </mxCell>
        <mxCell id="M_jtrBnHkbyMmADLlw9q-3" value="json_data" style="shape=parallelogram;perimeter=parallelogramPerimeter;whiteSpace=wrap;html=1;fixedSize=1;fontSize=18;" parent="1" vertex="1">
          <mxGeometry x="172.5" y="380" width="155" height="60" as="geometry" />
        </mxCell>
        <mxCell id="t1VJT6TRiRiGFEHo18Yv-1" value="" style="endArrow=classic;html=1;rounded=0;fontSize=18;exitX=0.5;exitY=1;exitDx=0;exitDy=0;entryX=0.5;entryY=0;entryDx=0;entryDy=0;" parent="1" source="M_jtrBnHkbyMmADLlw9q-3" target="vVEvf7zGMi97AZAIco2q-1" edge="1">
          <mxGeometry width="50" height="50" relative="1" as="geometry">
            <mxPoint x="248.5" y="460" as="sourcePoint" />
            <mxPoint x="248.5" y="510" as="targetPoint" />
          </mxGeometry>
        </mxCell>
        <mxCell id="vVEvf7zGMi97AZAIco2q-1" value="make packet" style="rounded=0;whiteSpace=wrap;html=1;fontSize=18;" parent="1" vertex="1">
          <mxGeometry x="190" y="490" width="120" height="60" as="geometry" />
        </mxCell>
        <mxCell id="vVEvf7zGMi97AZAIco2q-2" value="packet" style="shape=parallelogram;perimeter=parallelogramPerimeter;whiteSpace=wrap;html=1;fixedSize=1;fontSize=18;" parent="1" vertex="1">
          <mxGeometry x="190" y="590" width="120" height="60" as="geometry" />
        </mxCell>
        <mxCell id="vVEvf7zGMi97AZAIco2q-3" value="" style="endArrow=classic;html=1;rounded=0;fontSize=18;exitX=0.5;exitY=1;exitDx=0;exitDy=0;entryX=0.5;entryY=0;entryDx=0;entryDy=0;" parent="1" source="lYxE_KjOH6ucg65rWOpo-1" target="vVEvf7zGMi97AZAIco2q-4" edge="1">
          <mxGeometry width="50" height="50" relative="1" as="geometry">
            <mxPoint x="90" y="390" as="sourcePoint" />
            <mxPoint x="80" y="480" as="targetPoint" />
          </mxGeometry>
        </mxCell>
        <mxCell id="vVEvf7zGMi97AZAIco2q-4" value="clientSocekt" style="shape=parallelogram;perimeter=parallelogramPerimeter;whiteSpace=wrap;html=1;fixedSize=1;fontSize=18;" parent="1" vertex="1">
          <mxGeometry x="10" y="590" width="140" height="60" as="geometry" />
        </mxCell>
        <mxCell id="vVEvf7zGMi97AZAIco2q-5" value="" style="endArrow=classic;html=1;rounded=0;fontSize=18;exitX=0.5;exitY=1;exitDx=0;exitDy=0;entryX=0.5;entryY=0;entryDx=0;entryDy=0;" parent="1" source="vVEvf7zGMi97AZAIco2q-1" target="vVEvf7zGMi97AZAIco2q-2" edge="1">
          <mxGeometry width="50" height="50" relative="1" as="geometry">
            <mxPoint x="140" y="640" as="sourcePoint" />
            <mxPoint x="190" y="590" as="targetPoint" />
          </mxGeometry>
        </mxCell>
        <mxCell id="uhAOb7e4ZNjodpHcu39X-1" value="" style="endArrow=classic;html=1;rounded=0;fontSize=18;exitX=0.5;exitY=1;exitDx=0;exitDy=0;entryX=0.5;entryY=0;entryDx=0;entryDy=0;edgeStyle=orthogonalEdgeStyle;" parent="1" source="vVEvf7zGMi97AZAIco2q-4" target="JOHa8kMpeh3tGVxTZ2q3-1" edge="1">
          <mxGeometry width="50" height="50" relative="1" as="geometry">
            <mxPoint x="80" y="645" as="sourcePoint" />
            <mxPoint x="80" y="710" as="targetPoint" />
          </mxGeometry>
        </mxCell>
        <mxCell id="JOHa8kMpeh3tGVxTZ2q3-1" value="send packet to server side" style="rounded=0;whiteSpace=wrap;html=1;fontSize=18;" parent="1" vertex="1">
          <mxGeometry x="110" y="720" width="120" height="60" as="geometry" />
        </mxCell>
        <mxCell id="JOHa8kMpeh3tGVxTZ2q3-2" value="" style="endArrow=classic;html=1;rounded=0;fontSize=18;exitX=0.5;exitY=1;exitDx=0;exitDy=0;entryX=0.5;entryY=0;entryDx=0;entryDy=0;edgeStyle=orthogonalEdgeStyle;" parent="1" source="vVEvf7zGMi97AZAIco2q-2" target="JOHa8kMpeh3tGVxTZ2q3-1" edge="1">
          <mxGeometry width="50" height="50" relative="1" as="geometry">
            <mxPoint x="320" y="670" as="sourcePoint" />
            <mxPoint x="370" y="620" as="targetPoint" />
          </mxGeometry>
        </mxCell>
        <mxCell id="up9heXCjgwysaVFBMMoL-1" value="" style="endArrow=classic;html=1;rounded=0;fontSize=18;exitX=1;exitY=0.5;exitDx=0;exitDy=0;entryX=0;entryY=0.5;entryDx=0;entryDy=0;" parent="1" source="JOHa8kMpeh3tGVxTZ2q3-1" target="zQDQ1fjy-JzKZ4gUatEo-1" edge="1">
          <mxGeometry width="50" height="50" relative="1" as="geometry">
            <mxPoint x="380" y="750" as="sourcePoint" />
            <mxPoint x="480" y="750" as="targetPoint" />
          </mxGeometry>
        </mxCell>
        <mxCell id="XusqUYzp_RQvONGvwxI1-3" value="" style="edgeStyle=orthogonalEdgeStyle;rounded=0;orthogonalLoop=1;jettySize=auto;html=1;fontSize=18;entryX=0;entryY=0.5;entryDx=0;entryDy=0;entryPerimeter=0;exitX=1;exitY=0.5;exitDx=0;exitDy=0;" parent="1" source="cIFxexZ3vCnZGWukxzFT-2" target="XusqUYzp_RQvONGvwxI1-1" edge="1">
          <mxGeometry relative="1" as="geometry" />
        </mxCell>
        <mxCell id="zQDQ1fjy-JzKZ4gUatEo-1" value="get tcp packet from server side" style="rounded=0;whiteSpace=wrap;html=1;fontSize=18;" parent="1" vertex="1">
          <mxGeometry x="486" y="720" width="150" height="60" as="geometry" />
        </mxCell>
        <mxCell id="cIFxexZ3vCnZGWukxzFT-1" value="" style="endArrow=classic;html=1;rounded=0;fontSize=18;exitX=0.5;exitY=0;exitDx=0;exitDy=0;entryX=0.5;entryY=1;entryDx=0;entryDy=0;" parent="1" source="zQDQ1fjy-JzKZ4gUatEo-1" target="cIFxexZ3vCnZGWukxzFT-2" edge="1">
          <mxGeometry width="50" height="50" relative="1" as="geometry">
            <mxPoint x="500" y="650" as="sourcePoint" />
            <mxPoint x="560" y="670" as="targetPoint" />
          </mxGeometry>
        </mxCell>
        <mxCell id="cIFxexZ3vCnZGWukxzFT-2" value="received_json_data" style="shape=parallelogram;perimeter=parallelogramPerimeter;whiteSpace=wrap;html=1;fixedSize=1;fontSize=18;" parent="1" vertex="1">
          <mxGeometry x="461" y="610" width="200" height="60" as="geometry" />
        </mxCell>
        <mxCell id="cIFxexZ3vCnZGWukxzFT-3" value="" style="endArrow=classic;html=1;rounded=0;fontSize=18;entryX=0.5;entryY=1;entryDx=0;entryDy=0;exitX=0.5;exitY=0;exitDx=0;exitDy=0;" parent="1" source="cIFxexZ3vCnZGWukxzFT-2" target="LHbMTHM5t2jMZgTVRR8Q-1" edge="1">
          <mxGeometry width="50" height="50" relative="1" as="geometry">
            <mxPoint x="690" y="590" as="sourcePoint" />
            <mxPoint x="550" y="580" as="targetPoint" />
          </mxGeometry>
        </mxCell>
        <mxCell id="LHbMTHM5t2jMZgTVRR8Q-1" value="conatins FIELD_KEY?" style="rhombus;whiteSpace=wrap;html=1;fontSize=18;" parent="1" vertex="1">
          <mxGeometry x="471" y="500" width="179" height="70" as="geometry" />
        </mxCell>
        <mxCell id="U_e3lslUAC2qt6W457U_-1" value="&quot;Fail to get key&quot;" style="strokeWidth=2;html=1;shape=mxgraph.flowchart.display;whiteSpace=wrap;fontSize=18;" parent="1" vertex="1">
          <mxGeometry x="371" y="420" width="110" height="70" as="geometry" />
        </mxCell>
        <mxCell id="eIBJ_UeRICz8WkkSR9rb-1" value="" style="endArrow=classic;html=1;rounded=0;fontSize=18;exitX=0;exitY=0.5;exitDx=0;exitDy=0;entryX=0.5;entryY=1;entryDx=0;entryDy=0;entryPerimeter=0;edgeStyle=orthogonalEdgeStyle;" parent="1" source="LHbMTHM5t2jMZgTVRR8Q-1" target="U_e3lslUAC2qt6W457U_-1" edge="1">
          <mxGeometry width="50" height="50" relative="1" as="geometry">
            <mxPoint x="370" y="500" as="sourcePoint" />
            <mxPoint x="420" y="450" as="targetPoint" />
          </mxGeometry>
        </mxCell>
        <mxCell id="eIBJ_UeRICz8WkkSR9rb-2" value="No" style="text;html=1;strokeColor=none;fillColor=none;align=center;verticalAlign=middle;whiteSpace=wrap;rounded=0;fontSize=18;" parent="1" vertex="1">
          <mxGeometry x="414" y="510" width="60" height="30" as="geometry" />
        </mxCell>
        <mxCell id="eIBJ_UeRICz8WkkSR9rb-3" value="" style="endArrow=classic;html=1;rounded=0;fontSize=18;entryX=0.5;entryY=1;entryDx=0;entryDy=0;exitX=0.5;exitY=0;exitDx=0;exitDy=0;exitPerimeter=0;" parent="1" source="U_e3lslUAC2qt6W457U_-1" target="eIBJ_UeRICz8WkkSR9rb-4" edge="1">
          <mxGeometry width="50" height="50" relative="1" as="geometry">
            <mxPoint x="410" y="420" as="sourcePoint" />
            <mxPoint x="460" y="370" as="targetPoint" />
          </mxGeometry>
        </mxCell>
        <mxCell id="eIBJ_UeRICz8WkkSR9rb-4" value="False" style="shape=parallelogram;perimeter=parallelogramPerimeter;whiteSpace=wrap;html=1;fixedSize=1;fontSize=18;" parent="1" vertex="1">
          <mxGeometry x="366" y="314" width="120" height="60" as="geometry" />
        </mxCell>
        <mxCell id="eIBJ_UeRICz8WkkSR9rb-6" value="" style="endArrow=classic;html=1;rounded=0;fontSize=18;exitX=1;exitY=0.5;exitDx=0;exitDy=0;entryX=0.5;entryY=1;entryDx=0;entryDy=0;edgeStyle=orthogonalEdgeStyle;" parent="1" source="LHbMTHM5t2jMZgTVRR8Q-1" target="FuDAQZjHuwK074P3OEZh-1" edge="1">
          <mxGeometry width="50" height="50" relative="1" as="geometry">
            <mxPoint x="650" y="470" as="sourcePoint" />
            <mxPoint x="700" y="420" as="targetPoint" />
          </mxGeometry>
        </mxCell>
        <mxCell id="FuDAQZjHuwK074P3OEZh-1" value="received_json_data" style="shape=parallelogram;perimeter=parallelogramPerimeter;whiteSpace=wrap;html=1;fixedSize=1;fontSize=18;" parent="1" vertex="1">
          <mxGeometry x="600" y="365" width="200" height="60" as="geometry" />
        </mxCell>
        <mxCell id="FuDAQZjHuwK074P3OEZh-2" value="main" style="shape=process;whiteSpace=wrap;html=1;backgroundOutline=1;fontSize=18;" parent="1" vertex="1">
          <mxGeometry x="521" y="166" width="120" height="60" as="geometry" />
        </mxCell>
        <mxCell id="FuDAQZjHuwK074P3OEZh-5" value="end" style="strokeWidth=2;html=1;shape=mxgraph.flowchart.terminator;whiteSpace=wrap;fontSize=18;" parent="1" vertex="1">
          <mxGeometry x="531" y="80" width="100" height="45" as="geometry" />
        </mxCell>
        <mxCell id="FuDAQZjHuwK074P3OEZh-6" value="" style="endArrow=classic;html=1;rounded=0;fontSize=18;entryX=0.5;entryY=1;entryDx=0;entryDy=0;entryPerimeter=0;" parent="1" source="FuDAQZjHuwK074P3OEZh-2" target="FuDAQZjHuwK074P3OEZh-5" edge="1">
          <mxGeometry width="50" height="50" relative="1" as="geometry">
            <mxPoint x="430" y="250" as="sourcePoint" />
            <mxPoint x="480" y="200" as="targetPoint" />
          </mxGeometry>
        </mxCell>
        <mxCell id="_8BkVch64NybXJOVy-b3-1" value="" style="endArrow=classic;html=1;rounded=0;fontSize=18;exitX=0.5;exitY=0;exitDx=0;exitDy=0;entryX=0.5;entryY=1;entryDx=0;entryDy=0;edgeStyle=orthogonalEdgeStyle;" parent="1" source="eIBJ_UeRICz8WkkSR9rb-4" target="FuDAQZjHuwK074P3OEZh-2" edge="1">
          <mxGeometry width="50" height="50" relative="1" as="geometry">
            <mxPoint x="410" y="260" as="sourcePoint" />
            <mxPoint x="460" y="210" as="targetPoint" />
          </mxGeometry>
        </mxCell>
        <mxCell id="_8BkVch64NybXJOVy-b3-2" value="" style="endArrow=classic;html=1;rounded=0;fontSize=18;exitX=0.5;exitY=0;exitDx=0;exitDy=0;entryX=0.5;entryY=1;entryDx=0;entryDy=0;edgeStyle=orthogonalEdgeStyle;" parent="1" source="FuDAQZjHuwK074P3OEZh-1" target="FuDAQZjHuwK074P3OEZh-2" edge="1">
          <mxGeometry width="50" height="50" relative="1" as="geometry">
            <mxPoint x="660" y="370" as="sourcePoint" />
            <mxPoint x="570" y="230" as="targetPoint" />
            <Array as="points">
              <mxPoint x="700" y="270" />
              <mxPoint x="581" y="270" />
            </Array>
          </mxGeometry>
        </mxCell>
        <mxCell id="XusqUYzp_RQvONGvwxI1-1" value="display" style="strokeWidth=2;html=1;shape=mxgraph.flowchart.display;whiteSpace=wrap;fontSize=18;" parent="1" vertex="1">
          <mxGeometry x="710" y="610" width="100" height="60" as="geometry" />
        </mxCell>
        <mxCell id="_FoZ7YdlPBc7jfjFaPHS-1" value="Yes" style="text;html=1;strokeColor=none;fillColor=none;align=center;verticalAlign=middle;whiteSpace=wrap;rounded=0;fontSize=18;" parent="1" vertex="1">
          <mxGeometry x="648" y="508" width="60" height="30" as="geometry" />
        </mxCell>
      </root>
    </mxGraphModel>
  </diagram>
  <diagram id="PghUv0XcxhZCT1FycQNF" name="file uploading">
    <mxGraphModel dx="3134" dy="1073" grid="1" gridSize="10" guides="1" tooltips="1" connect="1" arrows="1" fold="1" page="1" pageScale="1" pageWidth="827" pageHeight="1169" math="0" shadow="0">
      <root>
        <mxCell id="0" />
        <mxCell id="1" parent="0" />
        <mxCell id="oDg5H1gxC1TGTIGkrN-5-1" value="make json_data in dictionary form" style="rounded=0;whiteSpace=wrap;html=1;fontSize=22;" parent="1" vertex="1">
          <mxGeometry x="-151" y="770" width="160" height="100" as="geometry" />
        </mxCell>
        <mxCell id="oDg5H1gxC1TGTIGkrN-5-2" value="" style="endArrow=classic;html=1;rounded=0;fontSize=22;exitX=0.5;exitY=1;exitDx=0;exitDy=0;entryX=0.5;entryY=0;entryDx=0;entryDy=0;" parent="1" source="oDg5H1gxC1TGTIGkrN-5-1" target="oDg5H1gxC1TGTIGkrN-5-3" edge="1">
          <mxGeometry width="50" height="50" relative="1" as="geometry">
            <mxPoint x="62.5" y="315" as="sourcePoint" />
            <mxPoint x="72.5" y="365" as="targetPoint" />
          </mxGeometry>
        </mxCell>
        <mxCell id="oDg5H1gxC1TGTIGkrN-5-3" value="json_data" style="shape=parallelogram;perimeter=parallelogramPerimeter;whiteSpace=wrap;html=1;fixedSize=1;fontSize=22;" parent="1" vertex="1">
          <mxGeometry x="-147" y="1000" width="155" height="60" as="geometry" />
        </mxCell>
        <mxCell id="oDg5H1gxC1TGTIGkrN-5-6" value="" style="endArrow=classic;html=1;rounded=0;fontSize=22;exitX=0.5;exitY=1;exitDx=0;exitDy=0;entryX=0.5;entryY=0;entryDx=0;entryDy=0;edgeStyle=orthogonalEdgeStyle;" parent="1" source="oDg5H1gxC1TGTIGkrN-5-3" target="YUrcyv7SKahH10bCkB1U-1" edge="1">
          <mxGeometry width="50" height="50" relative="1" as="geometry">
            <mxPoint x="-307.5" y="1015" as="sourcePoint" />
            <mxPoint x="-130" y="1040" as="targetPoint" />
          </mxGeometry>
        </mxCell>
        <mxCell id="pxgOWPSn9mKmQNN8H6e3-3" value="decompose and rearrange" style="rounded=0;whiteSpace=wrap;html=1;fontSize=22;" parent="1" vertex="1">
          <mxGeometry y="368" width="150" height="80" as="geometry" />
        </mxCell>
        <mxCell id="pxgOWPSn9mKmQNN8H6e3-5" value="" style="endArrow=classic;html=1;rounded=0;fontSize=22;exitX=0.5;exitY=0;exitDx=0;exitDy=0;edgeStyle=orthogonalEdgeStyle;entryX=0;entryY=0.5;entryDx=0;entryDy=0;" parent="1" source="hICeC7CZ31S6OY6i22R_-13" target="hICeC7CZ31S6OY6i22R_-24" edge="1">
          <mxGeometry width="50" height="50" relative="1" as="geometry">
            <mxPoint x="-240" y="920" as="sourcePoint" />
            <mxPoint x="-200" y="780" as="targetPoint" />
            <Array as="points">
              <mxPoint x="520" y="320" />
              <mxPoint x="-250" y="320" />
              <mxPoint x="-250" y="1260" />
            </Array>
          </mxGeometry>
        </mxCell>
        <mxCell id="Y8PQH3kGBiSJW4C7UIDj-5" value="" style="endArrow=classic;html=1;rounded=0;fontSize=22;exitX=0.5;exitY=1;exitDx=0;exitDy=0;entryX=0.5;entryY=0;entryDx=0;entryDy=0;" parent="1" source="ueX8oMjl3Z-ETcb1RuK0-1" target="_S_a3P_a-IYw92rtgHaU-30" edge="1">
          <mxGeometry width="50" height="50" relative="1" as="geometry">
            <mxPoint x="810" y="465" as="sourcePoint" />
            <mxPoint x="815" y="527.5" as="targetPoint" />
          </mxGeometry>
        </mxCell>
        <mxCell id="cV1ZOMdC6tjE6M7RQnAr-1" value="start_index" style="shape=parallelogram;perimeter=parallelogramPerimeter;whiteSpace=wrap;html=1;fixedSize=1;fontSize=22;" parent="1" vertex="1">
          <mxGeometry x="726" y="656" width="170" height="50" as="geometry" />
        </mxCell>
        <mxCell id="47y30MfIM4I17iBT-nqF-3" value="if block_size != total_block - 1" style="rhombus;whiteSpace=wrap;html=1;fontSize=22;" parent="1" vertex="1">
          <mxGeometry x="330" y="735" width="190" height="95" as="geometry" />
        </mxCell>
        <mxCell id="47y30MfIM4I17iBT-nqF-4" value="end_index" style="shape=parallelogram;perimeter=parallelogramPerimeter;whiteSpace=wrap;html=1;fixedSize=1;fontSize=22;" parent="1" vertex="1">
          <mxGeometry x="354" y="652" width="170" height="55" as="geometry" />
        </mxCell>
        <mxCell id="hICeC7CZ31S6OY6i22R_-3" value="token,&lt;br style=&quot;font-size: 22px;&quot;&gt;received_json_data" style="shape=parallelogram;perimeter=parallelogramPerimeter;whiteSpace=wrap;html=1;fixedSize=1;fontSize=22;" parent="1" vertex="1">
          <mxGeometry x="180" y="373" width="230" height="70" as="geometry" />
        </mxCell>
        <mxCell id="hICeC7CZ31S6OY6i22R_-12" value="" style="endArrow=classic;html=1;rounded=0;fontSize=22;exitX=0.5;exitY=1;exitDx=0;exitDy=0;entryX=0.5;entryY=0;entryDx=0;entryDy=0;" parent="1" source="hICeC7CZ31S6OY6i22R_-13" target="hICeC7CZ31S6OY6i22R_-14" edge="1">
          <mxGeometry width="50" height="50" relative="1" as="geometry">
            <mxPoint x="-410" y="242.5" as="sourcePoint" />
            <mxPoint x="-360" y="192.5" as="targetPoint" />
          </mxGeometry>
        </mxCell>
        <mxCell id="hICeC7CZ31S6OY6i22R_-13" value="main" style="shape=process;whiteSpace=wrap;html=1;backgroundOutline=1;fontSize=22;" parent="1" vertex="1">
          <mxGeometry x="460" y="378" width="120" height="60" as="geometry" />
        </mxCell>
        <mxCell id="hICeC7CZ31S6OY6i22R_-14" value="binary_data" style="shape=parallelogram;perimeter=parallelogramPerimeter;whiteSpace=wrap;html=1;fixedSize=1;fontSize=22;" parent="1" vertex="1">
          <mxGeometry x="440" y="490" width="160" height="60" as="geometry" />
        </mxCell>
        <mxCell id="hICeC7CZ31S6OY6i22R_-21" value="token, key" style="shape=parallelogram;perimeter=parallelogramPerimeter;whiteSpace=wrap;html=1;fixedSize=1;fontSize=22;" parent="1" vertex="1">
          <mxGeometry x="-142.5" y="500" width="140" height="70" as="geometry" />
        </mxCell>
        <mxCell id="hICeC7CZ31S6OY6i22R_-22" value="file_size, block_size, total_block" style="shape=parallelogram;perimeter=parallelogramPerimeter;whiteSpace=wrap;html=1;fixedSize=1;fontSize=22;" parent="1" vertex="1">
          <mxGeometry x="140" y="500" width="170" height="80" as="geometry" />
        </mxCell>
        <mxCell id="hICeC7CZ31S6OY6i22R_-24" value="clientSocket" style="shape=parallelogram;perimeter=parallelogramPerimeter;whiteSpace=wrap;html=1;fixedSize=1;fontSize=22;" parent="1" vertex="1">
          <mxGeometry x="-151" y="1230" width="163" height="60" as="geometry" />
        </mxCell>
        <mxCell id="YTwkZ6mKyR8aMSCUHEar-2" value="blocked_bin_data = binary_data[start_index:end_index]" style="shape=parallelogram;perimeter=parallelogramPerimeter;whiteSpace=wrap;html=1;fixedSize=1;fontSize=22;" parent="1" vertex="1">
          <mxGeometry x="390" y="980" width="390" height="80" as="geometry" />
        </mxCell>
        <mxCell id="YTwkZ6mKyR8aMSCUHEar-4" value="&amp;nbsp;= file_size *(block_index + 1)" style="rounded=0;whiteSpace=wrap;html=1;fontSize=22;" parent="1" vertex="1">
          <mxGeometry x="235" y="845" width="190" height="65" as="geometry" />
        </mxCell>
        <mxCell id="YTwkZ6mKyR8aMSCUHEar-5" value="= file_size" style="rounded=0;whiteSpace=wrap;html=1;fontSize=22;" parent="1" vertex="1">
          <mxGeometry x="445" y="842" width="150" height="68" as="geometry" />
        </mxCell>
        <mxCell id="YTwkZ6mKyR8aMSCUHEar-6" value="= file_size*block_index" style="rounded=0;whiteSpace=wrap;html=1;fontSize=22;" parent="1" vertex="1">
          <mxGeometry x="690" y="830" width="240" height="80" as="geometry" />
        </mxCell>
        <mxCell id="YUrcyv7SKahH10bCkB1U-1" value="make packet" style="rounded=0;whiteSpace=wrap;html=1;fontSize=22;" parent="1" vertex="1">
          <mxGeometry x="149" y="1130" width="120" height="60" as="geometry" />
        </mxCell>
        <mxCell id="YUrcyv7SKahH10bCkB1U-2" value="packet" style="shape=parallelogram;perimeter=parallelogramPerimeter;whiteSpace=wrap;html=1;fixedSize=1;fontSize=22;" parent="1" vertex="1">
          <mxGeometry x="149" y="1230" width="120" height="60" as="geometry" />
        </mxCell>
        <mxCell id="IQQXUuQLY3MKXu54nyXQ-1" value="send packet to server side" style="rounded=0;whiteSpace=wrap;html=1;fontSize=22;" parent="1" vertex="1">
          <mxGeometry x="140" y="1370" width="140" height="70" as="geometry" />
        </mxCell>
        <mxCell id="_4dUcZ_5LGt_bS9HmgCg-1" value="get tcp packet from server side" style="rounded=0;whiteSpace=wrap;html=1;fontSize=22;" parent="1" vertex="1">
          <mxGeometry x="1070" y="1371" width="190" height="70" as="geometry" />
        </mxCell>
        <mxCell id="bw4YxewPPEmo_WJYO3zm-1" value="contains FiELD_MD5?" style="strokeWidth=2;html=1;shape=mxgraph.flowchart.decision;whiteSpace=wrap;fontSize=22;" parent="1" vertex="1">
          <mxGeometry x="1060" y="970" width="210" height="110" as="geometry" />
        </mxCell>
        <mxCell id="_S_a3P_a-IYw92rtgHaU-1" value="received_json_data" style="shape=parallelogram;perimeter=parallelogramPerimeter;whiteSpace=wrap;html=1;fixedSize=1;fontSize=22;" parent="1" vertex="1">
          <mxGeometry x="1050" y="1200" width="230" height="60" as="geometry" />
        </mxCell>
        <mxCell id="_S_a3P_a-IYw92rtgHaU-12" value="" style="endArrow=classic;html=1;rounded=0;fontSize=22;entryX=1;entryY=0.5;entryDx=0;entryDy=0;exitX=0;exitY=0.5;exitDx=0;exitDy=0;" parent="1" source="hICeC7CZ31S6OY6i22R_-13" target="hICeC7CZ31S6OY6i22R_-3" edge="1">
          <mxGeometry width="50" height="50" relative="1" as="geometry">
            <mxPoint x="-250" y="590" as="sourcePoint" />
            <mxPoint x="-200" y="540" as="targetPoint" />
          </mxGeometry>
        </mxCell>
        <mxCell id="_S_a3P_a-IYw92rtgHaU-13" value="" style="endArrow=classic;html=1;rounded=0;fontSize=22;entryX=1;entryY=0.5;entryDx=0;entryDy=0;exitX=0;exitY=0.5;exitDx=0;exitDy=0;" parent="1" source="hICeC7CZ31S6OY6i22R_-3" target="pxgOWPSn9mKmQNN8H6e3-3" edge="1">
          <mxGeometry width="50" height="50" relative="1" as="geometry">
            <mxPoint x="-410" y="700" as="sourcePoint" />
            <mxPoint x="-360" y="650" as="targetPoint" />
          </mxGeometry>
        </mxCell>
        <mxCell id="_S_a3P_a-IYw92rtgHaU-14" value="" style="endArrow=classic;html=1;rounded=0;fontSize=22;exitX=0.5;exitY=1;exitDx=0;exitDy=0;entryX=0.5;entryY=0;entryDx=0;entryDy=0;edgeStyle=orthogonalEdgeStyle;" parent="1" source="pxgOWPSn9mKmQNN8H6e3-3" target="hICeC7CZ31S6OY6i22R_-21" edge="1">
          <mxGeometry width="50" height="50" relative="1" as="geometry">
            <mxPoint x="-270" y="540" as="sourcePoint" />
            <mxPoint x="-220" y="490" as="targetPoint" />
          </mxGeometry>
        </mxCell>
        <mxCell id="_S_a3P_a-IYw92rtgHaU-15" value="" style="endArrow=classic;html=1;rounded=0;fontSize=22;entryX=0.5;entryY=0;entryDx=0;entryDy=0;exitX=0.5;exitY=1;exitDx=0;exitDy=0;edgeStyle=orthogonalEdgeStyle;" parent="1" source="pxgOWPSn9mKmQNN8H6e3-3" target="hICeC7CZ31S6OY6i22R_-22" edge="1">
          <mxGeometry width="50" height="50" relative="1" as="geometry">
            <mxPoint x="80" y="470" as="sourcePoint" />
            <mxPoint x="-310" y="760" as="targetPoint" />
          </mxGeometry>
        </mxCell>
        <mxCell id="_S_a3P_a-IYw92rtgHaU-16" value="" style="endArrow=classic;html=1;rounded=0;fontSize=22;entryX=0.5;entryY=0;entryDx=0;entryDy=0;exitX=0.5;exitY=1;exitDx=0;exitDy=0;edgeStyle=orthogonalEdgeStyle;" parent="1" source="_S_a3P_a-IYw92rtgHaU-30" target="cV1ZOMdC6tjE6M7RQnAr-1" edge="1">
          <mxGeometry width="50" height="50" relative="1" as="geometry">
            <mxPoint x="760" y="530" as="sourcePoint" />
            <mxPoint x="240" y="650" as="targetPoint" />
          </mxGeometry>
        </mxCell>
        <mxCell id="_S_a3P_a-IYw92rtgHaU-17" value="" style="endArrow=classic;html=1;rounded=0;fontSize=22;entryX=0.5;entryY=0;entryDx=0;entryDy=0;exitX=0.5;exitY=1;exitDx=0;exitDy=0;edgeStyle=orthogonalEdgeStyle;" parent="1" source="_S_a3P_a-IYw92rtgHaU-30" target="47y30MfIM4I17iBT-nqF-4" edge="1">
          <mxGeometry width="50" height="50" relative="1" as="geometry">
            <mxPoint x="740" y="490" as="sourcePoint" />
            <mxPoint x="670" y="710" as="targetPoint" />
            <Array as="points">
              <mxPoint x="810" y="590" />
              <mxPoint x="439" y="590" />
            </Array>
          </mxGeometry>
        </mxCell>
        <mxCell id="_S_a3P_a-IYw92rtgHaU-18" value="" style="endArrow=classic;html=1;rounded=0;fontSize=22;exitX=0.415;exitY=1.043;exitDx=0;exitDy=0;exitPerimeter=0;entryX=0.5;entryY=0;entryDx=0;entryDy=0;" parent="1" source="47y30MfIM4I17iBT-nqF-4" target="47y30MfIM4I17iBT-nqF-3" edge="1">
          <mxGeometry width="50" height="50" relative="1" as="geometry">
            <mxPoint x="620" y="780" as="sourcePoint" />
            <mxPoint x="670" y="730" as="targetPoint" />
          </mxGeometry>
        </mxCell>
        <mxCell id="_S_a3P_a-IYw92rtgHaU-19" value="" style="endArrow=classic;html=1;rounded=0;fontSize=22;exitX=0.5;exitY=1;exitDx=0;exitDy=0;entryX=0.5;entryY=0;entryDx=0;entryDy=0;" parent="1" source="hICeC7CZ31S6OY6i22R_-21" target="oDg5H1gxC1TGTIGkrN-5-1" edge="1">
          <mxGeometry width="50" height="50" relative="1" as="geometry">
            <mxPoint x="320" y="1080" as="sourcePoint" />
            <mxPoint x="370" y="1030" as="targetPoint" />
          </mxGeometry>
        </mxCell>
        <mxCell id="_S_a3P_a-IYw92rtgHaU-21" value="" style="endArrow=classic;html=1;rounded=0;fontSize=22;exitX=0;exitY=0.5;exitDx=0;exitDy=0;entryX=0.5;entryY=0;entryDx=0;entryDy=0;" parent="1" source="47y30MfIM4I17iBT-nqF-3" target="YTwkZ6mKyR8aMSCUHEar-4" edge="1">
          <mxGeometry width="50" height="50" relative="1" as="geometry">
            <mxPoint x="300" y="1020" as="sourcePoint" />
            <mxPoint x="350" y="970" as="targetPoint" />
          </mxGeometry>
        </mxCell>
        <mxCell id="_S_a3P_a-IYw92rtgHaU-22" value="" style="endArrow=classic;html=1;rounded=0;fontSize=22;exitX=1;exitY=0.5;exitDx=0;exitDy=0;entryX=0.5;entryY=0;entryDx=0;entryDy=0;" parent="1" source="47y30MfIM4I17iBT-nqF-3" target="YTwkZ6mKyR8aMSCUHEar-5" edge="1">
          <mxGeometry width="50" height="50" relative="1" as="geometry">
            <mxPoint x="340" y="1050" as="sourcePoint" />
            <mxPoint x="390" y="1000" as="targetPoint" />
          </mxGeometry>
        </mxCell>
        <mxCell id="_S_a3P_a-IYw92rtgHaU-23" value="" style="endArrow=classic;html=1;rounded=0;fontSize=22;exitX=0.5;exitY=1;exitDx=0;exitDy=0;entryX=0.5;entryY=0;entryDx=0;entryDy=0;edgeStyle=orthogonalEdgeStyle;" parent="1" source="YTwkZ6mKyR8aMSCUHEar-4" target="YTwkZ6mKyR8aMSCUHEar-2" edge="1">
          <mxGeometry width="50" height="50" relative="1" as="geometry">
            <mxPoint x="340" y="1020" as="sourcePoint" />
            <mxPoint x="635" y="949.9999999999998" as="targetPoint" />
          </mxGeometry>
        </mxCell>
        <mxCell id="_S_a3P_a-IYw92rtgHaU-24" value="" style="endArrow=classic;html=1;rounded=0;fontSize=22;exitX=0.5;exitY=1;exitDx=0;exitDy=0;entryX=0.5;entryY=0;entryDx=0;entryDy=0;edgeStyle=orthogonalEdgeStyle;" parent="1" source="YTwkZ6mKyR8aMSCUHEar-5" target="YTwkZ6mKyR8aMSCUHEar-2" edge="1">
          <mxGeometry width="50" height="50" relative="1" as="geometry">
            <mxPoint x="310" y="1050" as="sourcePoint" />
            <mxPoint x="640" y="970" as="targetPoint" />
          </mxGeometry>
        </mxCell>
        <mxCell id="_S_a3P_a-IYw92rtgHaU-25" value="" style="endArrow=classic;html=1;rounded=0;fontSize=22;exitX=0.5;exitY=1;exitDx=0;exitDy=0;entryX=0.5;entryY=0;entryDx=0;entryDy=0;edgeStyle=orthogonalEdgeStyle;" parent="1" source="YTwkZ6mKyR8aMSCUHEar-6" target="YTwkZ6mKyR8aMSCUHEar-2" edge="1">
          <mxGeometry width="50" height="50" relative="1" as="geometry">
            <mxPoint x="920" y="1000" as="sourcePoint" />
            <mxPoint x="635" y="949.9999999999998" as="targetPoint" />
          </mxGeometry>
        </mxCell>
        <mxCell id="_S_a3P_a-IYw92rtgHaU-27" value="" style="endArrow=classic;html=1;rounded=0;fontSize=22;exitX=0.5;exitY=1;exitDx=0;exitDy=0;entryX=0.5;entryY=0;entryDx=0;entryDy=0;" parent="1" source="cV1ZOMdC6tjE6M7RQnAr-1" target="YTwkZ6mKyR8aMSCUHEar-6" edge="1">
          <mxGeometry width="50" height="50" relative="1" as="geometry">
            <mxPoint x="870" y="780" as="sourcePoint" />
            <mxPoint x="920" y="730" as="targetPoint" />
          </mxGeometry>
        </mxCell>
        <mxCell id="_S_a3P_a-IYw92rtgHaU-29" value="" style="endArrow=classic;html=1;rounded=0;fontSize=22;exitX=0.5;exitY=1;exitDx=0;exitDy=0;entryX=0.5;entryY=0;entryDx=0;entryDy=0;edgeStyle=orthogonalEdgeStyle;" parent="1" source="YTwkZ6mKyR8aMSCUHEar-2" target="YUrcyv7SKahH10bCkB1U-1" edge="1">
          <mxGeometry width="50" height="50" relative="1" as="geometry">
            <mxPoint x="450" y="1250" as="sourcePoint" />
            <mxPoint x="500" y="1200" as="targetPoint" />
          </mxGeometry>
        </mxCell>
        <mxCell id="_S_a3P_a-IYw92rtgHaU-30" value="block_index = 0" style="shape=parallelogram;perimeter=parallelogramPerimeter;whiteSpace=wrap;html=1;fixedSize=1;fontSize=22;" parent="1" vertex="1">
          <mxGeometry x="720" y="490" width="180" height="70" as="geometry" />
        </mxCell>
        <mxCell id="_S_a3P_a-IYw92rtgHaU-32" value="block_index += 1" style="shape=parallelogram;perimeter=parallelogramPerimeter;whiteSpace=wrap;html=1;fixedSize=1;fontSize=22;" parent="1" vertex="1">
          <mxGeometry x="948" y="580" width="220" height="80" as="geometry" />
        </mxCell>
        <mxCell id="_S_a3P_a-IYw92rtgHaU-33" value="" style="endArrow=classic;html=1;rounded=0;fontSize=22;exitX=0.5;exitY=1;exitDx=0;exitDy=0;entryX=0.5;entryY=0;entryDx=0;entryDy=0;" parent="1" source="YUrcyv7SKahH10bCkB1U-1" target="YUrcyv7SKahH10bCkB1U-2" edge="1">
          <mxGeometry width="50" height="50" relative="1" as="geometry">
            <mxPoint x="210" y="1080" as="sourcePoint" />
            <mxPoint x="260" y="1030" as="targetPoint" />
          </mxGeometry>
        </mxCell>
        <mxCell id="_S_a3P_a-IYw92rtgHaU-34" value="" style="endArrow=classic;html=1;rounded=0;fontSize=22;exitX=0.5;exitY=1;exitDx=0;exitDy=0;entryX=0.5;entryY=0;entryDx=0;entryDy=0;" parent="1" source="YUrcyv7SKahH10bCkB1U-2" target="IQQXUuQLY3MKXu54nyXQ-1" edge="1">
          <mxGeometry width="50" height="50" relative="1" as="geometry">
            <mxPoint x="350" y="1280" as="sourcePoint" />
            <mxPoint x="400" y="1230" as="targetPoint" />
          </mxGeometry>
        </mxCell>
        <mxCell id="_S_a3P_a-IYw92rtgHaU-35" value="" style="endArrow=classic;html=1;rounded=0;fontSize=22;exitX=0.5;exitY=1;exitDx=0;exitDy=0;entryX=0.5;entryY=0;entryDx=0;entryDy=0;edgeStyle=orthogonalEdgeStyle;" parent="1" source="hICeC7CZ31S6OY6i22R_-24" target="IQQXUuQLY3MKXu54nyXQ-1" edge="1">
          <mxGeometry width="50" height="50" relative="1" as="geometry">
            <mxPoint x="-140" y="1360" as="sourcePoint" />
            <mxPoint x="-90" y="1310" as="targetPoint" />
            <Array as="points">
              <mxPoint x="-69" y="1330" />
              <mxPoint x="209" y="1330" />
            </Array>
          </mxGeometry>
        </mxCell>
        <mxCell id="_S_a3P_a-IYw92rtgHaU-36" value="" style="endArrow=classic;html=1;rounded=0;fontSize=22;exitX=1;exitY=0.5;exitDx=0;exitDy=0;entryX=0;entryY=0.5;entryDx=0;entryDy=0;" parent="1" source="IQQXUuQLY3MKXu54nyXQ-1" target="_4dUcZ_5LGt_bS9HmgCg-1" edge="1">
          <mxGeometry width="50" height="50" relative="1" as="geometry">
            <mxPoint x="710" y="1410" as="sourcePoint" />
            <mxPoint x="760" y="1360" as="targetPoint" />
          </mxGeometry>
        </mxCell>
        <mxCell id="_S_a3P_a-IYw92rtgHaU-37" value="" style="endArrow=classic;html=1;rounded=0;fontSize=22;entryX=0.5;entryY=1;entryDx=0;entryDy=0;exitX=0.5;exitY=0;exitDx=0;exitDy=0;" parent="1" source="_4dUcZ_5LGt_bS9HmgCg-1" target="_S_a3P_a-IYw92rtgHaU-1" edge="1">
          <mxGeometry width="50" height="50" relative="1" as="geometry">
            <mxPoint x="660" y="1280" as="sourcePoint" />
            <mxPoint x="710" y="1230" as="targetPoint" />
          </mxGeometry>
        </mxCell>
        <mxCell id="_S_a3P_a-IYw92rtgHaU-38" value="" style="endArrow=classic;html=1;rounded=0;fontSize=22;entryX=0.5;entryY=1;entryDx=0;entryDy=0;exitX=0;exitY=0.5;exitDx=0;exitDy=0;exitPerimeter=0;" parent="1" source="bw4YxewPPEmo_WJYO3zm-1" target="_S_a3P_a-IYw92rtgHaU-32" edge="1">
          <mxGeometry width="50" height="50" relative="1" as="geometry">
            <mxPoint x="940" y="1050" as="sourcePoint" />
            <mxPoint x="970" y="730" as="targetPoint" />
          </mxGeometry>
        </mxCell>
        <mxCell id="_S_a3P_a-IYw92rtgHaU-39" value="" style="endArrow=classic;html=1;rounded=0;fontSize=22;entryX=0.5;entryY=1;entryDx=0;entryDy=0;entryPerimeter=0;exitX=0.5;exitY=0;exitDx=0;exitDy=0;" parent="1" source="_S_a3P_a-IYw92rtgHaU-1" target="bw4YxewPPEmo_WJYO3zm-1" edge="1">
          <mxGeometry width="50" height="50" relative="1" as="geometry">
            <mxPoint x="980" y="1120" as="sourcePoint" />
            <mxPoint x="1030" y="1070" as="targetPoint" />
          </mxGeometry>
        </mxCell>
        <mxCell id="_S_a3P_a-IYw92rtgHaU-40" value="" style="endArrow=classic;html=1;rounded=0;fontSize=22;entryX=0.5;entryY=1;entryDx=0;entryDy=0;exitX=1;exitY=0.5;exitDx=0;exitDy=0;exitPerimeter=0;" parent="1" source="bw4YxewPPEmo_WJYO3zm-1" target="ueX8oMjl3Z-ETcb1RuK0-8" edge="1">
          <mxGeometry width="50" height="50" relative="1" as="geometry">
            <mxPoint x="980" y="1080" as="sourcePoint" />
            <mxPoint x="1270" y="895" as="targetPoint" />
          </mxGeometry>
        </mxCell>
        <mxCell id="HlBjaAHYRaPI3p__Zlm_-1" value="display" style="strokeWidth=2;html=1;shape=mxgraph.flowchart.display;whiteSpace=wrap;fontSize=22;rotation=0;" parent="1" vertex="1">
          <mxGeometry x="910" y="1200" width="100" height="60" as="geometry" />
        </mxCell>
        <mxCell id="HlBjaAHYRaPI3p__Zlm_-2" value="" style="endArrow=classic;html=1;rounded=0;fontSize=22;exitX=0;exitY=0.5;exitDx=0;exitDy=0;entryX=1;entryY=0.5;entryDx=0;entryDy=0;entryPerimeter=0;" parent="1" source="_S_a3P_a-IYw92rtgHaU-1" target="HlBjaAHYRaPI3p__Zlm_-1" edge="1">
          <mxGeometry width="50" height="50" relative="1" as="geometry">
            <mxPoint x="800" y="1100" as="sourcePoint" />
            <mxPoint x="850" y="1050" as="targetPoint" />
          </mxGeometry>
        </mxCell>
        <mxCell id="HlBjaAHYRaPI3p__Zlm_-3" value="" style="endArrow=classic;html=1;rounded=0;fontSize=22;exitX=0.5;exitY=1;exitDx=0;exitDy=0;entryX=0.5;entryY=0;entryDx=0;entryDy=0;edgeStyle=orthogonalEdgeStyle;" parent="1" source="_S_a3P_a-IYw92rtgHaU-30" target="oDg5H1gxC1TGTIGkrN-5-1" edge="1">
          <mxGeometry width="50" height="50" relative="1" as="geometry">
            <mxPoint x="120" y="810" as="sourcePoint" />
            <mxPoint x="170" y="760" as="targetPoint" />
            <Array as="points">
              <mxPoint x="810" y="620" />
              <mxPoint x="-72" y="620" />
            </Array>
          </mxGeometry>
        </mxCell>
        <mxCell id="ueX8oMjl3Z-ETcb1RuK0-1" value="start_time = time.time()" style="shape=parallelogram;perimeter=parallelogramPerimeter;whiteSpace=wrap;html=1;fixedSize=1;fontSize=22;" parent="1" vertex="1">
          <mxGeometry x="725" y="378" width="170" height="70" as="geometry" />
        </mxCell>
        <mxCell id="ueX8oMjl3Z-ETcb1RuK0-2" value="start" style="ellipse;whiteSpace=wrap;html=1;fontSize=22;" parent="1" vertex="1">
          <mxGeometry x="750" y="280" width="120" height="50" as="geometry" />
        </mxCell>
        <mxCell id="ueX8oMjl3Z-ETcb1RuK0-3" value="" style="endArrow=classic;html=1;rounded=0;fontSize=22;exitX=0.5;exitY=1;exitDx=0;exitDy=0;entryX=0.5;entryY=0;entryDx=0;entryDy=0;" parent="1" source="ueX8oMjl3Z-ETcb1RuK0-2" target="ueX8oMjl3Z-ETcb1RuK0-1" edge="1">
          <mxGeometry width="50" height="50" relative="1" as="geometry">
            <mxPoint x="1030" y="460" as="sourcePoint" />
            <mxPoint x="1080" y="410" as="targetPoint" />
          </mxGeometry>
        </mxCell>
        <mxCell id="ueX8oMjl3Z-ETcb1RuK0-6" value="main" style="shape=process;whiteSpace=wrap;html=1;backgroundOutline=1;fontSize=22;" parent="1" vertex="1">
          <mxGeometry x="1209" y="510" width="120" height="60" as="geometry" />
        </mxCell>
        <mxCell id="ueX8oMjl3Z-ETcb1RuK0-7" value="end" style="strokeWidth=2;html=1;shape=mxgraph.flowchart.terminator;whiteSpace=wrap;fontSize=22;" parent="1" vertex="1">
          <mxGeometry x="1218" y="388" width="100" height="40" as="geometry" />
        </mxCell>
        <mxCell id="ueX8oMjl3Z-ETcb1RuK0-8" value="stop_time = time.time()" style="shape=parallelogram;perimeter=parallelogramPerimeter;whiteSpace=wrap;html=1;fixedSize=1;fontSize=22;" parent="1" vertex="1">
          <mxGeometry x="1180" y="830" width="180" height="76" as="geometry" />
        </mxCell>
        <mxCell id="ueX8oMjl3Z-ETcb1RuK0-9" value="comsumed_time = stop_time - start_time" style="shape=parallelogram;perimeter=parallelogramPerimeter;whiteSpace=wrap;html=1;fixedSize=1;fontSize=22;" parent="1" vertex="1">
          <mxGeometry x="1160" y="650" width="220" height="90" as="geometry" />
        </mxCell>
        <mxCell id="ueX8oMjl3Z-ETcb1RuK0-10" value="display" style="strokeWidth=2;html=1;shape=mxgraph.flowchart.display;whiteSpace=wrap;fontSize=22;" parent="1" vertex="1">
          <mxGeometry x="1410" y="665" width="110" height="60" as="geometry" />
        </mxCell>
        <mxCell id="ueX8oMjl3Z-ETcb1RuK0-11" value="" style="edgeStyle=orthogonalEdgeStyle;rounded=0;orthogonalLoop=1;jettySize=auto;html=1;fontSize=22;" parent="1" source="ueX8oMjl3Z-ETcb1RuK0-9" target="ueX8oMjl3Z-ETcb1RuK0-10" edge="1">
          <mxGeometry relative="1" as="geometry" />
        </mxCell>
        <mxCell id="ueX8oMjl3Z-ETcb1RuK0-12" value="" style="endArrow=classic;html=1;rounded=0;fontSize=22;entryX=0.5;entryY=1;entryDx=0;entryDy=0;exitX=0.5;exitY=0;exitDx=0;exitDy=0;" parent="1" source="ueX8oMjl3Z-ETcb1RuK0-8" target="ueX8oMjl3Z-ETcb1RuK0-9" edge="1">
          <mxGeometry width="50" height="50" relative="1" as="geometry">
            <mxPoint x="1420" y="960" as="sourcePoint" />
            <mxPoint x="1470" y="910" as="targetPoint" />
          </mxGeometry>
        </mxCell>
        <mxCell id="ueX8oMjl3Z-ETcb1RuK0-13" value="" style="endArrow=classic;html=1;rounded=0;fontSize=22;exitX=0.5;exitY=0;exitDx=0;exitDy=0;entryX=0.5;entryY=1;entryDx=0;entryDy=0;" parent="1" source="ueX8oMjl3Z-ETcb1RuK0-9" target="ueX8oMjl3Z-ETcb1RuK0-6" edge="1">
          <mxGeometry width="50" height="50" relative="1" as="geometry">
            <mxPoint x="1350" y="640" as="sourcePoint" />
            <mxPoint x="1400" y="590" as="targetPoint" />
          </mxGeometry>
        </mxCell>
        <mxCell id="ueX8oMjl3Z-ETcb1RuK0-14" value="" style="endArrow=classic;html=1;rounded=0;fontSize=22;exitX=0.5;exitY=0;exitDx=0;exitDy=0;entryX=0.5;entryY=1;entryDx=0;entryDy=0;entryPerimeter=0;" parent="1" source="ueX8oMjl3Z-ETcb1RuK0-6" target="ueX8oMjl3Z-ETcb1RuK0-7" edge="1">
          <mxGeometry width="50" height="50" relative="1" as="geometry">
            <mxPoint x="1360" y="490" as="sourcePoint" />
            <mxPoint x="1410" y="440" as="targetPoint" />
          </mxGeometry>
        </mxCell>
        <mxCell id="ueX8oMjl3Z-ETcb1RuK0-15" value="No" style="text;html=1;strokeColor=none;fillColor=none;align=center;verticalAlign=middle;whiteSpace=wrap;rounded=0;fontSize=22;" parent="1" vertex="1">
          <mxGeometry x="1010" y="960" width="60" height="30" as="geometry" />
        </mxCell>
        <mxCell id="ueX8oMjl3Z-ETcb1RuK0-17" value="Yes" style="text;html=1;strokeColor=none;fillColor=none;align=center;verticalAlign=middle;whiteSpace=wrap;rounded=0;fontSize=22;" parent="1" vertex="1">
          <mxGeometry x="1269" y="960" width="60" height="30" as="geometry" />
        </mxCell>
        <mxCell id="ueX8oMjl3Z-ETcb1RuK0-18" value="No" style="text;html=1;strokeColor=none;fillColor=none;align=center;verticalAlign=middle;whiteSpace=wrap;rounded=0;fontSize=22;" parent="1" vertex="1">
          <mxGeometry x="510" y="800" width="60" height="30" as="geometry" />
        </mxCell>
        <mxCell id="ueX8oMjl3Z-ETcb1RuK0-19" value="&lt;span style=&quot;color: rgb(0, 0, 0); font-family: Helvetica; font-size: 22px; font-style: normal; font-variant-ligatures: normal; font-variant-caps: normal; font-weight: 400; letter-spacing: normal; orphans: 2; text-align: center; text-indent: 0px; text-transform: none; widows: 2; word-spacing: 0px; -webkit-text-stroke-width: 0px; background-color: rgb(248, 249, 250); text-decoration-thickness: initial; text-decoration-style: initial; text-decoration-color: initial; float: none; display: inline !important;&quot;&gt;Yes&lt;/span&gt;" style="text;whiteSpace=wrap;html=1;fontSize=22;" parent="1" vertex="1">
          <mxGeometry x="280" y="795" width="36" height="30" as="geometry" />
        </mxCell>
        <mxCell id="B9CkNV8dKvp9zMKHXnEH-2" value="" style="endArrow=classic;html=1;rounded=0;fontSize=22;exitX=0;exitY=0.5;exitDx=0;exitDy=0;entryX=0.5;entryY=0;entryDx=0;entryDy=0;edgeStyle=orthogonalEdgeStyle;" edge="1" parent="1" source="_S_a3P_a-IYw92rtgHaU-32" target="oDg5H1gxC1TGTIGkrN-5-1">
          <mxGeometry width="50" height="50" relative="1" as="geometry">
            <mxPoint x="210" y="780" as="sourcePoint" />
            <mxPoint x="260" y="730" as="targetPoint" />
          </mxGeometry>
        </mxCell>
        <mxCell id="B9CkNV8dKvp9zMKHXnEH-3" value="" style="endArrow=classic;html=1;rounded=0;fontSize=22;entryX=0.5;entryY=0;entryDx=0;entryDy=0;exitX=0;exitY=0.5;exitDx=0;exitDy=0;edgeStyle=orthogonalEdgeStyle;" edge="1" parent="1" source="_S_a3P_a-IYw92rtgHaU-32" target="47y30MfIM4I17iBT-nqF-4">
          <mxGeometry width="50" height="50" relative="1" as="geometry">
            <mxPoint x="140" y="730" as="sourcePoint" />
            <mxPoint x="190" y="680" as="targetPoint" />
          </mxGeometry>
        </mxCell>
        <mxCell id="B9CkNV8dKvp9zMKHXnEH-4" value="" style="endArrow=classic;html=1;rounded=0;fontSize=22;entryX=0.5;entryY=0;entryDx=0;entryDy=0;exitX=0;exitY=0.5;exitDx=0;exitDy=0;edgeStyle=orthogonalEdgeStyle;" edge="1" parent="1" source="_S_a3P_a-IYw92rtgHaU-32" target="cV1ZOMdC6tjE6M7RQnAr-1">
          <mxGeometry width="50" height="50" relative="1" as="geometry">
            <mxPoint x="590" y="760" as="sourcePoint" />
            <mxPoint x="640" y="710" as="targetPoint" />
          </mxGeometry>
        </mxCell>
      </root>
    </mxGraphModel>
  </diagram>
</mxfile>
